<?xml version="1.0" encoding="UTF-8"?>
<svg width="95px" height="58px" viewBox="0 0 95 58" version="1.1" xmlns="http://www.w3.org/2000/svg" xmlns:xlink="http://www.w3.org/1999/xlink">
    <!-- Generator: Sketch 51.2 (57519) - http://www.bohemiancoding.com/sketch -->
    <title>CardX__logo_purple_RGB</title>
    <desc>Created with Sketch.</desc>
    <defs>
        <polygon id="path-1" points="0 0.231738739 95 0.231738739 95 57.9843243 0 57.9843243"></polygon>
    </defs>
    <g id="Layout" stroke="none" stroke-width="1" fill="none" fill-rule="evenodd">
        <g id="5_T1b_Login_ForgotPassword@2x" transform="translate(-653.000000, -230.000000)">
            <g id="CardX__logo_purple_RGB" transform="translate(653.000000, 230.000000)">
                <g>
                    <g id="Group-7">
                        <mask id="mask-2" fill="white">
                            <use xlink:href="#path-1"></use>
                        </mask>
                        <g id="Clip-2"></g>
                        <path d="M8.20509722,0.231738739 C3.97363889,0.231738739 0.545458333,3.62578378 0.545458333,7.81589189 L0.545458333,35.9827297 L0.817,36.2507838 L3.30072222,36.2507838 L3.57490278,35.9827297 L3.57490278,7.81589189 C3.57490278,5.28871171 5.65170833,3.23101802 8.20509722,3.23101802 L87.3387778,3.23101802 C89.8929583,3.23101802 91.9705556,5.28871171 91.9705556,7.81589189 L91.9705556,50.1794054 C91.9705556,52.7073694 89.8929583,54.7642793 87.3387778,54.7642793 L76.0311389,54.7642793 L75.7580139,55.0349459 L75.7580139,57.4633694 L76.0311389,57.7322072 L87.3387778,57.7322072 C91.5718194,57.7322072 95,54.3381622 95,50.1496216 L95,7.81589189 C95,3.62578378 91.5718194,0.231738739 87.3387778,0.231738739" id="Fill-1" fill="#31295D" mask="url(#mask-2)"></path>
                        <path d="M29.5888056,57.7295946 L26.5992083,57.7295946 L26.326875,57.4607568 L26.0545417,56.9230811 L25.783,56.9230811 C25.783,56.9230811 24.6949861,57.9992162 22.7934028,57.9992162 C19.8019583,57.9992162 17.8995833,56.3835766 17.8995833,53.6918018 C17.8995833,49.6550541 21.7061806,49.1171171 23.8811528,49.1171171 C24.9673194,49.1171171 25.783,49.3862162 25.783,49.3862162 L26.0545417,49.1171171 L26.0545417,48.8474955 C26.0545417,47.5017387 25.783,47.2329009 24.1519028,47.2329009 C23.3364861,47.2329009 22.5218611,47.2329009 22.2492639,48.040982 L21.9777222,48.3098198 L18.7157917,48.3098198 L18.4426667,48.040982 C18.4426667,46.4261261 19.8019583,44.003973 24.1519028,44.003973 C28.5018472,44.003973 29.8603472,46.1565045 29.8603472,50.1942973 L29.8603472,57.4607568 L29.5888056,57.7295946 Z M25.783,52.077991 C25.783,52.077991 25.2396528,51.8099369 24.1519028,51.8099369 C22.5218611,51.8099369 21.7061806,52.346045 21.7061806,53.4237477 C21.7061806,54.2313063 22.2492639,54.768982 23.6080278,54.768982 C24.9673194,54.768982 26.0545417,53.9614234 26.0545417,52.8860721 L26.0545417,52.346045 L25.783,52.077991 Z" id="Fill-3" fill="#31295D" mask="url(#mask-2)"></path>
                        <path d="M13.3203194,52.077991 L13.5918611,51.8099369 L16.8545833,51.8099369 L17.1263889,52.077991 C16.5814583,55.8459009 13.5918611,57.9992162 9.24297222,57.9992162 C3.26193056,57.9992162 0,53.9614234 0,48.3098198 C0,42.6582162 3.26193056,38.6212072 9.24297222,38.6212072 C13.5918611,38.6212072 16.5814583,40.772955 17.1263889,44.272027 L16.8545833,44.5419099 L13.5918611,44.5419099 L13.3203194,44.272027 C12.7772361,42.6582162 11.4179444,41.8501351 9.24297222,41.8501351 C5.43690278,41.8501351 3.80580556,44.5419099 3.80580556,48.3098198 C3.80580556,52.077991 5.43690278,54.768982 9.24297222,54.768982 C11.4179444,54.768982 12.7772361,53.9614234 13.3203194,52.077991" id="Fill-4" fill="#31295D" mask="url(#mask-2)"></path>
                        <path d="M40.4169583,47.5022613 L38.5143194,47.5022613 C36.3393472,47.5022613 35.5231389,48.5786577 35.5231389,51.0015946 L35.5231389,57.4604955 L35.2515972,57.7301171 L31.9904583,57.7301171 L31.7170694,57.4604955 L31.7170694,44.5416486 L31.9904583,44.2735946 L34.9800556,44.2735946 L35.2515972,44.5416486 L35.5231389,45.3481622 L35.7946806,45.3481622 C35.7946806,45.3481622 36.3393472,44.2735946 38.7866528,44.2735946 L40.4169583,44.2735946 L40.6877083,44.5416486 L40.6877083,47.2342072 L40.4169583,47.5022613" id="Fill-5" fill="#31295D" mask="url(#mask-2)"></path>
                        <path d="M46.7550417,44.003973 C49.2012917,44.003973 50.2893056,45.3492072 50.2893056,45.3492072 L50.5608472,45.3492072 L50.5608472,39.1588829 L50.8323889,38.890045 L54.095375,38.890045 L54.3669167,39.1588829 L54.3669167,57.4604955 L54.095375,57.7295946 L51.1047222,57.7295946 L50.8323889,57.4604955 L50.5608472,56.6524144 L50.2893056,56.6524144 C50.2893056,56.6524144 49.2012917,58 46.7550417,58 C43.4928472,58 40.7747917,55.3066577 40.7747917,51.0008108 C40.7747917,46.6957477 43.4928472,44.003973 46.7550417,44.003973 M47.57125,54.7687207 C49.7454306,54.7687207 50.5608472,53.1541261 50.5608472,51.0008108 C50.5608472,48.8474955 49.7454306,47.2326396 47.57125,47.2326396 C45.3954861,47.2326396 44.5808611,48.8474955 44.5808611,51.0008108 C44.5808611,53.1541261 45.3954861,54.7687207 47.57125,54.7687207" id="Fill-6" fill="#31295D" mask="url(#mask-2)"></path>
                    </g>
                    <polyline id="Fill-8" fill="#31295D" points="70.9678527 58 68.985122 58 68.4175275 57.7406046 63.0344547 51.2484094 62.7523074 51.2484094 57.3695096 57.7406046 56.8035651 58 54.8191843 58 54.537037 57.7406046 54.537037 55.1441299 60.2019821 48.6501701 60.2019821 48.3915309 54.8191843 42.6782782 54.8191843 40.0818034 55.1024316 39.8208955 57.0865373 39.8208955 57.6527568 40.0818034 62.7523074 45.7935437 63.0344547 45.7935437 68.1345552 40.0818034 68.7004997 39.8208955 70.6846055 39.8208955 70.9678527 40.0818034 70.9678527 42.6782782 65.5850549 48.3915309 65.5850549 48.6501701 71.25 55.1441299 71.25 57.7406046 70.9678527 58"></polyline>
                </g>
            </g>
        </g>
    </g>
</svg>