<?xml version="1.0" encoding="UTF-8"?>
<svg width="15px" height="15px" viewBox="0 0 15 15" version="1.1" xmlns="http://www.w3.org/2000/svg" xmlns:xlink="http://www.w3.org/1999/xlink">
    <!-- Generator: Sketch 51.2 (57519) - http://www.bohemiancoding.com/sketch -->
    <title>Shape Copy</title>
    <desc>Created with Sketch.</desc>
    <defs></defs>
    <g id="Responsive-Nav" stroke="none" stroke-width="1" fill="none" fill-rule="evenodd">
        <g id="Tablet-Portrait-with-nav" transform="translate(-184.000000, -33.000000)" fill="#FFFFFF" fill-rule="nonzero">
            <g id="Group-2">
                <path d="M191.768725,42.5407633 C191.634363,42.407919 191.365637,42.407919 191.231275,42.5407633 L186.058317,47.6552696 C185.856773,47.8545361 185.386504,47.9209582 185.117779,47.6552696 L184.177242,46.7253594 C183.908517,46.4596707 183.975698,45.9947156 184.177242,45.7954491 L189.350199,40.6809429 C189.484562,40.5480986 189.484562,40.2824099 189.350199,40.1495656 L184.177242,35.0350593 C183.975698,34.8357929 183.908517,34.3708377 184.177242,34.1051491 L185.117779,33.1752389 C185.386504,32.9095502 185.856773,32.9759724 186.058317,33.1752389 L191.231275,38.2897451 C191.365637,38.4225895 191.634363,38.4225895 191.768725,38.2897451 L196.941683,33.1752389 C197.143227,32.9759724 197.613496,32.9095502 197.882221,33.1752389 L198.822758,34.1051491 C199.091483,34.3708377 199.024302,34.8357929 198.822758,35.0350593 L193.649801,40.1495656 C193.515438,40.2824099 193.515438,40.5480986 193.649801,40.6809429 L198.822758,45.7954491 C199.024302,45.9947156 199.091483,46.4596707 198.822758,46.7253594 L197.882221,47.6552696 C197.613496,47.9209582 197.143227,47.8545361 196.941683,47.6552696 L191.768725,42.5407633 Z" id="Shape-Copy"></path>
            </g>
        </g>
    </g>
</svg>