<svg id="Layer_1" data-name="Layer 1" xmlns="http://www.w3.org/2000/svg" viewBox="0 0 20 20"><defs><style>.cls-1{fill:#fff;}</style></defs><title>Navigation_Icons_v1</title><path class="cls-1" d="M7,8.65c0,.39.18.6.71.81V7.69A1,1,0,0,0,7,8.65Z"/><path class="cls-1" d="M9,11.25v2.2a1.09,1.09,0,0,0,.81-1.15C9.81,11.76,9.57,11.49,9,11.25Z"/><path class="cls-1" d="M12.66,6.16a.75.75,0,0,1-.75-.75V0H2.69a.75.75,0,0,0-.75.75v18.5a.75.75,0,0,0,.75.75H17.31a.75.75,0,0,0,.75-.75V6.16ZM9,14.78v.94a.64.64,0,0,1-.64.64.65.65,0,0,1-.65-.64v-1a2.43,2.43,0,0,1-2.1-2.49.65.65,0,0,1,1.29,0,1.11,1.11,0,0,0,.81,1.16V10.83c-1-.3-2-.79-2-2.18a2.3,2.3,0,0,1,2-2.29V5.26a.65.65,0,0,1,.65-.65A.64.64,0,0,1,9,5.26V6.35a2.27,2.27,0,0,1,1.85,2.1.65.65,0,1,1-1.3,0A1,1,0,0,0,9,7.71V9.87c1,.33,2.11.88,2.11,2.43A2.41,2.41,0,0,1,9,14.78Z"/><polygon class="cls-1" points="13.41 0.45 13.41 4.66 17.63 4.66 13.41 0.45"/></svg>