<svg id="Layer_1" data-name="Layer 1" xmlns="http://www.w3.org/2000/svg" viewBox="0 0 20 20"><defs><style>.cls-1{fill:#fff;}</style></defs><title>Navigation_Icons_v1</title><path class="cls-1" d="M19.24,18.5H1.5V.75A.76.76,0,0,0,.75,0,.76.76,0,0,0,0,.75v18.5A.76.76,0,0,0,.75,20H19.24a.75.75,0,0,0,0-1.5Z"/><path class="cls-1" d="M3.35,17.28A.74.74,0,0,0,3.91,17l5.71-6.51L11.37,12a.76.76,0,0,0,1.05-.08l5-5.72,0,.48A.75.75,0,0,0,19,6.53L18.8,4.27a.74.74,0,0,0-.8-.7l-2.29.16a.75.75,0,0,0-.69.8.73.73,0,0,0,.8.7l.46,0-4.51,5.14L10,8.89A.75.75,0,0,0,9,9L2.78,16a.76.76,0,0,0,.07,1.06A.75.75,0,0,0,3.35,17.28Z"/></svg>