<svg id="Layer_1" data-name="Layer 1" xmlns="http://www.w3.org/2000/svg" viewBox="0 0 20 20"><defs><style>.cls-1{fill:#fff;}</style></defs><title>Navigation_Icons_v1</title><path class="cls-1" d="M15.83,20a.76.76,0,0,1-.54-.23L11.14,15.5a.75.75,0,1,1,1.07-1l2.87,2.94V15a.76.76,0,0,1,.75-.75H18.5V1.5H1.5V14.23h7a.75.75,0,0,1,0,1.5H.75A.76.76,0,0,1,0,15V.75A.76.76,0,0,1,.75,0h18.5A.76.76,0,0,1,20,.75V15a.76.76,0,0,1-.75.75H16.58v3.52a.75.75,0,0,1-.47.69A.71.71,0,0,1,15.83,20Z"/><path class="cls-1" d="M10,9.58a.75.75,0,0,1-.75-.75v-1A.76.76,0,0,1,10,7,1,1,0,1,0,9,6a.75.75,0,1,1-1.5,0,2.51,2.51,0,1,1,3.26,2.39v.41A.75.75,0,0,1,10,9.58Z"/><circle class="cls-1" cx="9.99" cy="11" r="0.75"/></svg>