<?xml version="1.0" encoding="UTF-8"?>
<svg width="17px" height="17px" viewBox="0 0 17 17" version="1.1" xmlns="http://www.w3.org/2000/svg" xmlns:xlink="http://www.w3.org/1999/xlink">
    <!-- Generator: Sketch 51.2 (57519) - http://www.bohemiancoding.com/sketch -->
    <title>calendar icon</title>
    <desc>Created with Sketch.</desc>
    <defs>
        <polygon id="path-1" points="0 0.9353 15.4883265 0.9353 15.4883265 17 0 17"></polygon>
    </defs>
    <g id="Layout" stroke="none" stroke-width="1" fill="none" fill-rule="evenodd">
        <g id="T3a_Tables_Reporting_Transactions@2x" transform="translate(-1014.000000, -206.000000)">
            <g id="FILTER-BAR" transform="translate(218.000000, 195.000000)">
                <g id="Date-Picker" transform="translate(665.000000, 0.000000)">
                    <g id="date-1">
                        <g id="calendar-icon" transform="translate(131.700680, 10.000000)">
                            <path d="M3.98421769,9.6721 L3.40952381,9.6721 C3.04816327,9.6721 2.75537415,9.4031 2.75537415,9.0711 L2.75537415,8.5431 C2.75537415,8.2101 3.04816327,7.9411 3.40952381,7.9411 L3.98421769,7.9411 C4.34666667,7.9411 4.63945578,8.2101 4.63945578,8.5431 L4.63945578,9.0711 C4.63945578,9.4031 4.34666667,9.6721 3.98421769,9.6721" id="Fill-1" fill="#919193"></path>
                            <path d="M8.0312381,9.6721 L7.45763265,9.6721 C7.09627211,9.6721 6.80239456,9.4021 6.80239456,9.0701 L6.80239456,8.5431 C6.80239456,8.2111 7.09627211,7.9411 7.45763265,7.9411 L8.0312381,7.9411 C8.39368707,7.9411 8.68647619,8.2111 8.68647619,8.5431 L8.68647619,9.0701 C8.68647619,9.4021 8.39368707,9.6721 8.0312381,9.6721" id="Fill-3" fill="#919193"></path>
                            <path d="M12.0783673,9.6721 L11.5058503,9.6721 C11.1434014,9.6721 10.8506122,9.4021 10.8506122,9.0691 L10.8506122,8.5441 C10.8506122,8.2111 11.1434014,7.9411 11.5058503,7.9411 L12.0783673,7.9411 C12.4408163,7.9411 12.7346939,8.2111 12.7346939,8.5441 L12.7346939,9.0691 C12.7346939,9.4021 12.4408163,9.6721 12.0783673,9.6721" id="Fill-5" fill="#919193"></path>
                            <path d="M3.98846259,13.8045 L3.40506122,13.8045 C3.04587755,13.8045 2.75526531,13.5365 2.75526531,13.2065 L2.75526531,12.6705 C2.75526531,12.3405 3.04587755,12.0735 3.40506122,12.0735 L3.98846259,12.0735 C4.34764626,12.0735 4.63934694,12.3405 4.63934694,12.6705 L4.63934694,13.2065 C4.63934694,13.5365 4.34764626,13.8045 3.98846259,13.8045" id="Fill-7" fill="#919193"></path>
                            <path d="M8.03341497,13.8045 L7.45545578,13.8045 C7.09518367,13.8045 6.80239456,13.5355 6.80239456,13.2035 L6.80239456,12.6735 C6.80239456,12.3425 7.09518367,12.0735 7.45545578,12.0735 L8.03341497,12.0735 C8.39477551,12.0735 8.68647619,12.3425 8.68647619,12.6735 L8.68647619,13.2035 C8.68647619,13.5355 8.39477551,13.8045 8.03341497,13.8045" id="Fill-9" fill="#919193"></path>
                            <path d="M12.0831565,13.8045 L11.5008435,13.8045 C11.1416599,13.8045 10.8499592,13.5365 10.8499592,13.2055 L10.8499592,12.6715 C10.8499592,12.3415 11.1416599,12.0735 11.5008435,12.0735 L12.0831565,12.0735 C12.4434286,12.0735 12.7340408,12.3415 12.7340408,12.6715 L12.7340408,13.2055 C12.7340408,13.5365 12.4434286,13.8045 12.0831565,13.8045" id="Fill-11" fill="#919193"></path>
                            <g id="Group-15" transform="translate(0.000000, 0.064700)">
                                <mask id="mask-2" fill="white">
                                    <use xlink:href="#path-1"></use>
                                </mask>
                                <g id="Clip-14"></g>
                                <path d="M2.06682993,16.1743 C1.42356463,16.1743 0.898938776,15.6933 0.898938776,15.1003 L0.898938776,5.4933 L14.5903673,5.4933 L14.5903673,15.1003 C14.5903673,15.6933 14.0657415,16.1743 13.4213878,16.1743 L2.06682993,16.1743 Z M13.4213878,2.9633 C14.0657415,2.9633 14.5903673,3.4443 14.5903673,4.0363 L14.5903673,4.6683 L0.898938776,4.6683 L0.898938776,4.0363 C0.898938776,3.4443 1.42356463,2.9633 2.06682993,2.9633 L13.4213878,2.9633 Z M12.8466939,2.1363 L12.8466939,0.9353 L11.6374422,0.9353 L11.6374422,2.1363 L3.85186395,2.1363 L3.85186395,0.9353 L2.64261224,0.9353 L2.64261224,2.1363 L2.06682993,2.1363 C0.927238095,2.1363 -0.000108843537,2.9883 -0.000108843537,4.0363 L-0.000108843537,15.1003 C-0.000108843537,16.1483 0.927238095,17.0003 2.06682993,17.0003 L13.4213878,17.0003 C14.562068,17.0003 15.4883265,16.1483 15.4883265,15.1003 L15.4883265,4.0363 C15.4883265,2.9883 14.562068,2.1363 13.4213878,2.1363 L12.8466939,2.1363 Z" id="Fill-13" fill="#919193" mask="url(#mask-2)"></path>
                            </g>
                        </g>
                    </g>
                </g>
            </g>
        </g>
    </g>
</svg>