<?xml version="1.0" encoding="UTF-8"?>
<svg width="15px" height="15px" viewBox="0 0 15 15" version="1.1" xmlns="http://www.w3.org/2000/svg" xmlns:xlink="http://www.w3.org/1999/xlink">
    <!-- Generator: Sketch 51.2 (57519) - http://www.bohemiancoding.com/sketch -->
    <title>Shape Copy</title>
    <desc>Created with Sketch.</desc>
    <defs></defs>
    <g id="Layout" stroke="none" stroke-width="1" fill="none" fill-rule="evenodd">
        <g id="Lightbox@2x" transform="translate(-962.000000, -103.000000)" fill="#D2D3D8" fill-rule="nonzero">
            <g id="Short_Lightbox" transform="translate(436.000000, 80.000000)">
                <path d="M533.768725,32.6498006 C533.634363,32.5154381 533.365637,32.5154381 533.231275,32.6498006 L528.058317,37.8227584 C527.856773,38.0243022 527.386504,38.0914835 527.117779,37.8227584 L526.177242,36.8822206 C525.908517,36.6134955 525.975698,36.1432267 526.177242,35.9416828 L531.350199,30.7687251 C531.484562,30.6343625 531.484562,30.3656375 531.350199,30.2312749 L526.177242,25.0583172 C525.975698,24.8567733 525.908517,24.3865045 526.177242,24.1177794 L527.117779,23.1772416 C527.386504,22.9085165 527.856773,22.9756978 528.058317,23.1772416 L533.231275,28.3501994 C533.365637,28.4845619 533.634363,28.4845619 533.768725,28.3501994 L538.941683,23.1772416 C539.143227,22.9756978 539.613496,22.9085165 539.882221,23.1772416 L540.822758,24.1177794 C541.091483,24.3865045 541.024302,24.8567733 540.822758,25.0583172 L535.649801,30.2312749 C535.515438,30.3656375 535.515438,30.6343625 535.649801,30.7687251 L540.822758,35.9416828 C541.024302,36.1432267 541.091483,36.6134955 540.822758,36.8822206 L539.882221,37.8227584 C539.613496,38.0914835 539.143227,38.0243022 538.941683,37.8227584 L533.768725,32.6498006 Z" id="Shape-Copy"></path>
            </g>
        </g>
    </g>
</svg>