<?xml version="1.0" encoding="UTF-8"?>
<svg width="10px" height="11px" viewBox="0 0 10 11" version="1.1" xmlns="http://www.w3.org/2000/svg" xmlns:xlink="http://www.w3.org/1999/xlink">
    <title>export_icn</title>
    <desc>Created with Sketch.</desc>
    <defs>
        <polygon id="path-1" points="0.0003 0.615 9.006 0.615 9.006 5 0.0003 5"></polygon>
    </defs>
    <g id="Layout" stroke="none" stroke-width="1" fill="none" fill-rule="evenodd">
        <g id="T3a_Tables_Reporting_Deposits@2x" transform="translate(-1277.000000, -205.000000)">
            <g id="FILTER-BAR" transform="translate(215.000000, 193.000000)">
                <g id="Export" transform="translate(1020.000000, 8.000000)">
                    <g id="export_icn" transform="translate(42.000000, 4.000000)">
                        <path d="M3.9731,0.2199 L1.9611,2.2319 C1.6681,2.5249 1.6681,2.9989 1.9611,3.2919 C2.2541,3.5849 2.7291,3.5849 3.0221,3.2919 L3.7531,2.5609 L3.7541,7.4089 C3.7541,7.8239 4.0891,8.1589 4.5041,8.1589 C4.7111,8.1589 4.8981,8.0749 5.0341,7.9399 C5.1701,7.8039 5.2531,7.6159 5.2531,7.4089 L5.2531,2.5609 L5.9851,3.2919 C6.2781,3.5849 6.7531,3.5849 7.0451,3.2919 C7.3381,2.9989 7.3381,2.5249 7.0451,2.2319 L5.0341,0.2199 C4.7411,-0.0731 4.2651,-0.0731 3.9731,0.2199" id="Fill-1" fill="#0071CE"></path>
                        <g id="Group-5" transform="translate(0.000000, 5.711100)">
                            <mask id="mask-2" fill="white">
                                <use xlink:href="#path-1"></use>
                            </mask>
                            <g id="Clip-4"></g>
                            <path d="M8.2563,5 L0.7503,5 C0.3363,5 0.0003,4.664 0.0003,4.25 L0.0003,1.365 C0.0003,0.951 0.3363,0.615 0.7503,0.615 C1.1643,0.615 1.5003,0.951 1.5003,1.365 L1.5003,3.5 L7.5063,3.5 L7.5063,1.365 C7.5063,0.951 7.8423,0.615 8.2563,0.615 C8.6703,0.615 9.0063,0.951 9.0063,1.365 L9.0063,4.25 C9.0063,4.664 8.6703,5 8.2563,5" id="Fill-3" fill="#0071CE" mask="url(#mask-2)"></path>
                        </g>
                    </g>
                </g>
            </g>
        </g>
    </g>
</svg>
