<?xml version="1.0" encoding="UTF-8"?>
<svg width="21px" height="29px" viewBox="0 0 21 29" version="1.1" xmlns="http://www.w3.org/2000/svg" xmlns:xlink="http://www.w3.org/1999/xlink">
    <!-- Generator: Sketch 51.2 (57519) - http://www.bohemiancoding.com/sketch -->
    <title>lighbulb</title>
    <desc>Created with Sketch.</desc>
    <defs></defs>
    <g id="Layout" stroke="none" stroke-width="1" fill="none" fill-rule="evenodd">
        <g id="5_T8_Article@2x" transform="translate(-311.000000, -1585.000000)" fill="#E7417A">
            <g id="What-are-CardX's-fees?" transform="translate(216.000000, 187.000000)">
                <g id="Section-3" transform="translate(95.085663, 1271.000000)">
                    <g id="Quick-Tip" transform="translate(0.000000, 127.000000)">
                        <g id="lighbulb">
                            <path d="M7.1669444,23.52141 L12.8510899,23.52141 L13.1428777,18.9796743 C13.1597785,18.7164853 13.3173538,18.4813895 13.5559537,18.3645809 C16.5752366,16.8805694 18.5267849,13.6340785 18.5267849,10.0933483 C18.5267849,5.18196514 14.8647736,1.47859002 10.0087686,1.47859002 C5.15326069,1.47859002 1.49124936,5.18196514 1.49124936,10.0933483 C1.49124936,13.6340785 3.4423006,16.8805694 6.46208054,18.3645809 C6.70068044,18.4813895 6.85825579,18.7164853 6.87515661,18.9796743 L7.1669444,23.52141 Z M13.5504858,25 L6.46705137,25 C6.07385862,25 5.74826918,24.696889 5.72291794,24.3080199 L5.41373224,19.4883093 C2.111112,17.679008 0,14.0397051 0,10.0933483 C0,4.33916884 4.30275147,0 10.0087686,0 C15.7147857,0 20.0180343,4.33916884 20.0180343,10.0933483 C20.0180343,14.0397051 17.9069223,17.6785151 14.604302,19.4883093 L14.2946192,24.3080199 C14.2697651,24.696889 13.9441756,25 13.5504858,25 Z" id="Fill-1"></path>
                            <path d="M13.3087137,27 L6.70932053,27 C6.32076207,27 6.00541028,26.776 6.00541028,26.5 C6.00541028,26.224 6.32076207,26 6.70932053,26 L13.3087137,26 C13.6977415,26 14.012624,26.224 14.012624,26.5 C14.012624,26.776 13.6977415,27 13.3087137,27" id="Fill-3"></path>
                            <path d="M12.3244471,29 L7.69358714,29 C7.31375308,29 7.00631199,28.776 7.00631199,28.5 C7.00631199,28.224 7.31375308,28 7.69358714,28 L12.3244471,28 C12.7042812,28 13.0117223,28.224 13.0117223,28.5 C13.0117223,28.776 12.7042812,29 12.3244471,29" id="Fill-5"></path>
                        </g>
                    </g>
                </g>
            </g>
        </g>
    </g>
</svg>