<?xml version="1.0" encoding="UTF-8"?>
<svg width="50px" height="25px" viewBox="0 0 50 25" version="1.1" xmlns="http://www.w3.org/2000/svg" xmlns:xlink="http://www.w3.org/1999/xlink">
    <!-- Generator: Sketch 51.2 (57519) - http://www.bohemiancoding.com/sketch -->
    <title>list_calendar view</title>
    <desc>Created with Sketch.</desc>
    <defs></defs>
    <g id="Layout" stroke="none" stroke-width="1" fill="none" fill-rule="evenodd">
        <g id="T3a_Tables_Reporting_Deposits@2x" transform="translate(-1260.000000, -267.000000)">
            <g id="Totals" transform="translate(214.000000, 252.000000)">
                <g id="list_calendar-view" transform="translate(1046.000000, 15.000000)">
                    <polygon id="Rectangle-3" fill="#0071CE" fill-rule="nonzero" points="0.968501253 1.08595628 25 1.08595628 25 24.0434383 0.968501253 24.0434383"></polygon>
                    <polygon id="Rectangle-3" fill="#F5F6FA" fill-rule="nonzero" points="25 1 49 1 49 23.957482 25 23.957482"></polygon>
                    <rect id="Rectangle-2" stroke="#D2D3D8" fill-rule="nonzero" x="0.5" y="0.5" width="49" height="24" rx="2"></rect>
                    <g id="list-icon" transform="translate(6.000000, 9.000000)" fill="#FFFFFF">
                        <polygon id="Fill-1" points="3 1 13 1 13 0 3 0"></polygon>
                        <polygon id="Fill-2" points="3 4 6.81469727 4 13 4 13 3 3 3"></polygon>
                        <polygon id="Fill-3" points="3 7 13 7 13 6 3 6"></polygon>
                        <rect id="Rectangle-4" fill-rule="nonzero" x="0" y="0" width="1" height="1"></rect>
                        <rect id="Rectangle-4" fill-rule="nonzero" x="0" y="3" width="1" height="1"></rect>
                        <rect id="Rectangle-4" fill-rule="nonzero" x="0" y="6" width="1" height="1"></rect>
                    </g>
                    <g id="calendar-icon" transform="translate(32.000000, 6.000000)" fill="#0071CE" opacity="0.5">
                        <g id="Group" transform="translate(2.000000, 5.000000)">
                            <path d="M0.652224148,1 L0.347198151,1 C0.155401502,1 0,0.844598498 0,0.652801849 L0,0.347775852 C0,0.155401502 0.155401502,0 0.347198151,0 L0.652224148,0 C0.844598498,0 1,0.155401502 1,0.347775852 L1,0.652801849 C1,0.844598498 0.844598498,1 0.652224148,1" id="Fill-1"></path>
                            <path d="M3.65222415,1 L3.34777585,1 C3.1559792,1 3,0.844020797 3,0.652224148 L3,0.347775852 C3,0.155979203 3.1559792,0 3.34777585,0 L3.65222415,0 C3.8445985,0 4,0.155979203 4,0.347775852 L4,0.652224148 C4,0.844020797 3.8445985,1 3.65222415,1" id="Fill-3"></path>
                            <path d="M6.65164645,1 L6.34777585,1 C6.1554015,1 6,0.844020797 6,0.651646447 L6,0.348353553 C6,0.155979203 6.1554015,0 6.34777585,0 L6.65164645,0 C6.8440208,0 7,0.155979203 7,0.348353553 L7,0.651646447 C7,0.844020797 6.8440208,1 6.65164645,1" id="Fill-5"></path>
                            <path d="M0.654534951,4 L0.344887348,4 C0.154246101,4 0,3.8451762 0,3.65453495 L0,3.34488735 C0,3.1542461 0.154246101,3 0.344887348,3 L0.654534951,3 C0.845176199,3 1,3.1542461 1,3.34488735 L1,3.65453495 C1,3.8451762 0.845176199,4 0.654534951,4" id="Fill-7"></path>
                            <path d="M3.65337955,4 L3.34662045,4 C3.1554015,4 3,3.8445985 3,3.65280185 L3,3.34662045 C3,3.1554015 3.1554015,3 3.34662045,3 L3.65337955,3 C3.8451762,3 4,3.1554015 4,3.34662045 L4,3.65280185 C4,3.8445985 3.8451762,4 3.65337955,4" id="Fill-9"></path>
                            <path d="M6.65453495,4 L6.34546505,4 C6.1548238,4 6,3.8451762 6,3.65395725 L6,3.34546505 C6,3.1548238 6.1548238,3 6.34546505,3 L6.65453495,3 C6.8457539,3 7,3.1548238 7,3.34546505 L7,3.65395725 C7,3.8451762 6.8457539,4 6.65453495,4" id="Fill-11"></path>
                        </g>
                        <g id="Group-15">
                            <path d="M9.53204498,11.3860742 L1.46795502,11.3860742 C1.0111033,11.3860742 0.63851019,11.0284365 0.63851019,10.5875236 L0.63851019,3.44443707 L10.3622628,3.44443707 L10.3622628,10.5875236 C10.3622628,11.0284365 9.98966971,11.3860742 9.53204498,11.3860742 M1.46795502,1.56330778 L9.53204498,1.56330778 C9.98966971,1.56330778 10.3622628,1.92094541 10.3622628,2.36111479 L10.3622628,2.83102534 L0.63851019,2.83102534 L0.63851019,2.36111479 C0.63851019,1.92094541 1.0111033,1.56330778 1.46795502,1.56330778 M9.53204498,0.948409003 L9.12389318,0.948409003 L9.12389318,0.0554302419 L8.26507379,0.0554302419 L8.26507379,0.948409003 L2.73569923,0.948409003 L2.73569923,0.0554302419 L1.87687983,0.0554302419 L1.87687983,0.948409003 L1.46795502,0.948409003 C0.658608573,0.948409003 0,1.58189602 0,2.36111479 L0,10.5875236 C0,11.3667424 0.658608573,12.0002294 1.46795502,12.0002294 L9.53204498,12.0002294 C10.3421644,12.0002294 11,11.3667424 11,10.5875236 L11,2.36111479 C11,1.58189602 10.3421644,0.948409003 9.53204498,0.948409003" id="Fill-13"></path>
                        </g>
                    </g>
                </g>
            </g>
        </g>
    </g>
</svg>