<?xml version="1.0" encoding="UTF-8"?>
<svg width="12px" height="13px" viewBox="0 0 12 13" version="1.1" xmlns="http://www.w3.org/2000/svg" xmlns:xlink="http://www.w3.org/1999/xlink">
    <!-- Generator: Sketch 51.2 (57519) - http://www.bohemiancoding.com/sketch -->
    <title>icon</title>
    <desc>Created with Sketch.</desc>
    <defs>
        <polygon id="path-1" points="0 0 12 0 12 13 0 13"></polygon>
    </defs>
    <g id="Layout" stroke="none" stroke-width="1" fill="none" fill-rule="evenodd">
        <g id="5_T1c_Login_PasswordReset@2x" transform="translate(-645.000000, -737.000000)">
            <g id="Resend-reset-link" transform="translate(645.000000, 733.000000)">
                <g id="icon" transform="translate(0.000000, 4.000000)">
                    <mask id="mask-2" fill="white">
                        <use xlink:href="#path-1"></use>
                    </mask>
                    <g id="Clip-2"></g>
                    <path d="M11.9890867,6.82339813 L11.0137682,7.16334903 C11.0153177,7.86324796 10.8617797,8.57396723 10.5345606,9.24784251 C9.35372663,11.6789983 6.35889045,12.7228201 3.85861567,11.5746298 C1.35848175,10.4264394 0.284983485,7.51453119 1.46595835,5.08337545 C2.64679235,2.65221971 5.64148767,1.60853482 8.14176245,2.75672516 C8.56561185,2.95135459 8.9460762,3.19899006 9.28400066,3.48429132 L6.48200258,3.67577052 L6.53228979,4.35923346 L10.750359,4.07009713 L10.147335,0 L9.44965267,0.0972462297 L9.83251165,2.67783245 C9.45303332,2.37075351 9.02932479,2.10394273 8.56279464,1.88972709 C5.57105739,0.515815917 1.98728325,1.76467665 0.574311057,4.67398252 C-0.838661133,7.58301445 0.445846234,11.0675797 3.43758348,12.4416278 C6.42946159,13.815402 10.0130949,12.5665413 11.4260671,9.65737241 C11.8707638,8.74175122 12.0478255,7.76928892 11.9890867,6.82339813" id="Fill-1" fill="#0071CE" mask="url(#mask-2)"></path>
                </g>
            </g>
        </g>
    </g>
</svg>