<?xml version="1.0" encoding="utf-8"?>
<!-- Generator: Adobe Illustrator 22.0.1, SVG Export Plug-In . SVG Version: 6.00 Build 0)  -->
<svg version="1.1" id="Icons" xmlns="http://www.w3.org/2000/svg" xmlns:xlink="http://www.w3.org/1999/xlink" x="0px" y="0px"
	 viewBox="0 0 20 20" style="enable-background:new 0 0 20 20;" xml:space="preserve">
<metadata><?xpacket begin="﻿" id="W5M0MpCehiHzreSzNTczkc9d"?>
<x:xmpmeta xmlns:x="adobe:ns:meta/" x:xmptk="Adobe XMP Core 5.6-c143 79.161210, 2017/08/11-10:28:36        ">
   <rdf:RDF xmlns:rdf="http://www.w3.org/1999/02/22-rdf-syntax-ns#">
      <rdf:Description rdf:about=""/>
   </rdf:RDF>
</x:xmpmeta>
                                                                                                    
                                                                                                    
                                                                                                    
                                                                                                    
                                                                                                    
                                                                                                    
                                                                                                    
                                                                                                    
                                                                                                    
                                                                                                    
                                                                                                    
                                                                                                    
                                                                                                    
                                                                                                    
                                                                                                    
                                                                                                    
                                                                                                    
                                                                                                    
                                                                                                    
                                                                                                    
                           
<?xpacket end="w"?></metadata>
<style type="text/css">
	.st0{fill:#FFFFFF;}
	.st1{fill:none;stroke:#FFFFFF;stroke-width:1.5;stroke-linecap:round;stroke-miterlimit:10;}
	.st2{fill:#0099C0;}
</style>
<g>
	<path class="st0" d="M-103.2-20h-4.6c-0.4,0-0.8-0.3-0.8-0.8v-6.9h-2.9v6.9c0,0.4-0.3,0.8-0.8,0.8h-4.6c-0.4,0-0.8-0.3-0.8-0.8
		v-9.8c0-0.4,0.3-0.8,0.8-0.8s0.8,0.3,0.8,0.8v9.1h3.1v-6.9c0-0.4,0.3-0.8,0.8-0.8h4.4c0.4,0,0.8,0.3,0.8,0.8v6.9h3.1v-9.1
		c0-0.4,0.3-0.8,0.8-0.8s0.8,0.3,0.8,0.8v9.8C-102.4-20.3-102.8-20-103.2-20z"/>
	<path class="st0" d="M-100.8-31.1c-0.2,0-0.3-0.1-0.5-0.2l-8.8-7l-8.8,7c-0.3,0.3-0.8,0.2-1.1-0.1c-0.3-0.3-0.2-0.8,0.1-1.1
		l9.2-7.4c0.3-0.2,0.7-0.2,0.9,0l9.2,7.4c0.3,0.3,0.4,0.7,0.1,1.1C-100.3-31.2-100.5-31.1-100.8-31.1z"/>
</g>
<path class="st0" d="M-30,11.3c-2.7,0-4.5-2.1-4.9-5.7c-0.2-1.5,0.3-2.9,1.2-4c0.9-1,2.3-1.6,3.7-1.6s2.8,0.6,3.7,1.6
	c0.9,1,1.4,2.5,1.2,4C-25.5,9.2-27.3,11.3-30,11.3z"/>
<path class="st0" d="M-100.3,7.6l-9.2-7.4c-0.3-0.2-0.7-0.2-0.9,0l-9.2,7.4c-0.3,0.3-0.4,0.7-0.1,1.1c0.3,0.3,0.7,0.4,1.1,0.1l1.2-1
	v11.5c0,0.4,0.3,0.8,0.8,0.8h3.9c0.4,0,0.8-0.3,0.8-0.8v-7.6h4.4v7.6c0,0.4,0.3,0.8,0.8,0.8h3.9c0.4,0,0.8-0.3,0.8-0.8V7.8l1.2,1
	c0.1,0.1,0.3,0.2,0.5,0.2c0.2,0,0.4-0.1,0.6-0.3C-99.9,8.3-100,7.8-100.3,7.6z"/>
<g>
	<path class="st0" d="M-60.8,20h-18.5c-0.4,0-0.8-0.3-0.8-0.8V0.8c0-0.4,0.3-0.8,0.8-0.8s0.8,0.3,0.8,0.8v17.8h17.7
		c0.4,0,0.8,0.3,0.8,0.8S-60.3,20-60.8,20z"/>
	<path class="st0" d="M-61,0h-15.3c-0.6,0-1,0.4-1,1v15.1L-71,9c0.3-0.3,0.7-0.3,1-0.1l1.8,1.5l4.5-5.1l-0.5,0
		c-0.4,0-0.8-0.3-0.8-0.7c0-0.4,0.3-0.8,0.7-0.8l2.3-0.2c0.4,0,0.8,0.3,0.8,0.7l0.2,2.3c0,0.4-0.3,0.8-0.7,0.8
		c-0.4,0-0.8-0.3-0.8-0.7l0-0.5l-5,5.7c-0.3,0.3-0.7,0.3-1,0.1l-1.8-1.5l-5.9,6.8c0,0,0,0,0,0H-61c0.6,0,1-0.4,1-1V1
		C-60,0.4-60.4,0-61,0z"/>
</g>
<g>
	<path class="st0" d="M-60.8-21.5h-17.7v-17.8c0-0.4-0.3-0.8-0.8-0.8s-0.8,0.3-0.8,0.8v18.5c0,0.4,0.3,0.8,0.8,0.8h18.5
		c0.4,0,0.8-0.3,0.8-0.8S-60.3-21.5-60.8-21.5z"/>
	<path class="st0" d="M-76.7-22.7c0.2,0,0.4-0.1,0.6-0.3l5.7-6.5l1.8,1.5c0.3,0.3,0.8,0.2,1-0.1l5-5.7l0,0.5c0,0.4,0.4,0.7,0.8,0.7
		c0.4,0,0.7-0.4,0.7-0.8l-0.2-2.3c0-0.4-0.4-0.7-0.8-0.7l-2.3,0.2c-0.4,0-0.7,0.4-0.7,0.8c0,0.4,0.4,0.7,0.8,0.7l0.5,0l-4.5,5.1
		l-1.8-1.5c-0.3-0.3-0.8-0.2-1,0.1l-6.2,7.1c-0.3,0.3-0.2,0.8,0.1,1.1C-77-22.8-76.8-22.7-76.7-22.7z"/>
</g>
<g>
	<path class="st0" d="M-22.6,11.4c0,0-0.9-0.3-2.1-0.6c-0.4-0.1-0.8,0-1,0.2c-1.1,1.1-2.5,1.7-4.2,1.7c-1.7,0-3.1-0.6-4.2-1.7
		c-0.3-0.3-0.7-0.4-1-0.2c-1.2,0.4-2.1,0.6-2.1,0.6C-39,12-40,13.3-40,14.9v3.6c0,0.8,0.7,1.5,1.6,1.5h8.4h0h8.4
		c0.9,0,1.6-0.7,1.6-1.5v-3.6C-20,13.3-21,12-22.6,11.4z"/>
</g>
<g>
	<path class="st0" d="M-30-28.7c-2.7,0-4.5-2.1-4.9-5.7c-0.2-1.5,0.3-2.9,1.2-4c0.9-1,2.3-1.6,3.7-1.6s2.8,0.6,3.7,1.6
		c0.9,1,1.4,2.5,1.2,4C-25.5-30.8-27.3-28.7-30-28.7z M-30-38.5c-1,0-2,0.4-2.6,1.1c-0.7,0.7-0.9,1.7-0.8,2.8c0.2,2,1,4.3,3.4,4.3
		s3.2-2.4,3.4-4.4c0.1-1.1-0.2-2.1-0.8-2.8C-28-38.1-29-38.5-30-38.5z"/>
	<path class="st0" d="M-22.3-20h-15.5c-1.3,0-2.3-1-2.3-2.2v-2.9c0-1.7,1.1-3.2,2.9-3.9c0.1,0,1.2-0.3,2.6-0.8
		c0.4-0.1,0.8,0.1,0.9,0.5c0.1,0.4-0.1,0.8-0.5,0.9c-1.4,0.4-2.6,0.8-2.6,0.8c-1.1,0.4-1.9,1.3-1.9,2.4v2.9c0,0.4,0.3,0.7,0.8,0.7
		h15.5c0.4,0,0.8-0.3,0.8-0.7v-2.9c0-1.1-0.7-2-1.9-2.5l0,0c0,0-1.2-0.3-2.5-0.8c-0.4-0.1-0.6-0.5-0.5-0.9c0.1-0.4,0.5-0.6,0.9-0.5
		C-24.2-29.3-23-29-23-29c1.8,0.6,3,2.2,3,3.9v2.9C-20-21-21-20-22.3-20z"/>
</g>
<g>
	<path class="st0" d="M18.2,0H1.8C0.8,0,0,0.8,0,1.8v6.5c0,1,0.8,1.8,1.8,1.8h0.2c0.4,0,0.8-0.3,0.8-0.8c0-0.4-0.3-0.8-0.8-0.8H1.8
		c-0.2,0-0.3-0.1-0.3-0.3V1.8c0-0.2,0.2-0.3,0.3-0.3h16.3c0.2,0,0.3,0.1,0.3,0.3v6.5c0,0.2-0.2,0.3-0.3,0.3h-0.2
		c-0.4,0-0.8,0.3-0.8,0.8c0,0.4,0.3,0.8,0.8,0.8h0.2c1,0,1.8-0.8,1.8-1.8V1.8C20,0.8,19.2,0,18.2,0z"/>
	<path class="st0" d="M17.5,5.1c0-0.4-0.3-0.8-0.8-0.8H3.2c-0.4,0-0.8,0.3-0.8,0.8s0.3,0.8,0.8,0.8h0.5v12.5c0,1,0.8,1.7,1.8,1.7
		h9.2c1,0,1.8-0.8,1.8-1.7V5.8h0.5C17.2,5.8,17.5,5.5,17.5,5.1z M12.9,18.5h-3V5.8h3V18.5z"/>
</g>
<g>
	<path class="st0" d="M95.8-20c-0.2,0-0.4-0.1-0.5-0.2l-4.2-4.3c-0.3-0.3-0.3-0.8,0-1.1c0.3-0.3,0.8-0.3,1.1,0l2.9,2.9V-25
		c0-0.4,0.3-0.8,0.8-0.8h2.7v-12.7h-17v12.7h7c0.4,0,0.8,0.3,0.8,0.8s-0.3,0.8-0.8,0.8h-7.7c-0.4,0-0.8-0.3-0.8-0.8v-14.2
		c0-0.4,0.3-0.8,0.8-0.8h18.5c0.4,0,0.8,0.3,0.8,0.8V-25c0,0.4-0.3,0.8-0.8,0.8h-2.7v3.5c0,0.3-0.2,0.6-0.5,0.7
		C96-20,95.9-20,95.8-20z"/>
	<g>
		<path class="st0" d="M90-30.4c-0.4,0-0.8-0.3-0.8-0.8v-1c0-0.4,0.3-0.8,0.8-0.8c0.6,0,1-0.5,1-1c0-0.6-0.5-1-1-1s-1,0.5-1,1
			c0,0.4-0.3,0.8-0.8,0.8s-0.8-0.3-0.8-0.8c0-1.4,1.1-2.5,2.5-2.5s2.5,1.1,2.5,2.5c0,1.1-0.7,2.1-1.8,2.4v0.4
			C90.7-30.8,90.4-30.4,90-30.4z"/>
		<circle class="st0" cx="90" cy="-29" r="0.8"/>
	</g>
</g>
<path class="st0" d="M99.2,0H80.8C80.3,0,80,0.3,80,0.8V15c0,0.4,0.3,0.8,0.8,0.8h10.6l3.9,4c0.1,0.1,0.3,0.2,0.5,0.2
	c0.1,0,0.2,0,0.3-0.1c0.3-0.1,0.5-0.4,0.5-0.7v-3.5h2.7c0.4,0,0.8-0.3,0.8-0.8V0.8C100,0.3,99.7,0,99.2,0z M90,11.7
	c-0.4,0-0.8-0.3-0.8-0.8c0-0.4,0.3-0.8,0.8-0.8s0.8,0.3,0.8,0.8C90.7,11.4,90.4,11.7,90,11.7z M90.7,8.4v0.4c0,0.4-0.3,0.8-0.8,0.8
	s-0.8-0.3-0.8-0.8v-1C89.2,7.4,89.6,7,90,7c0.6,0,1-0.5,1-1c0-0.6-0.5-1-1-1s-1,0.5-1,1c0,0.4-0.3,0.8-0.8,0.8S87.5,6.4,87.5,6
	c0-1.4,1.1-2.5,2.5-2.5s2.5,1.1,2.5,2.5C92.5,7.2,91.8,8.1,90.7,8.4z"/>
<g>
	<path class="st0" d="M17.5-34.9c0-0.4-0.3-0.8-0.8-0.8H3.2c-0.4,0-0.8,0.3-0.8,0.8s0.3,0.8,0.8,0.8h0.5v12.5c0,1,0.8,1.7,1.8,1.7
		h9.2c1,0,1.8-0.8,1.8-1.7v-12.5h0.5C17.2-34.2,17.5-34.5,17.5-34.9z M5.2-21.7v-12.4h4.7v12.7H5.4C5.3-21.5,5.2-21.6,5.2-21.7z
		 M14.8-21.7c0,0.1-0.1,0.2-0.2,0.2h-1.7v-12.7h1.9V-21.7z"/>
	<path class="st0" d="M18.2-40H1.8c-1,0-1.8,0.8-1.8,1.8v6.5c0,1,0.8,1.8,1.8,1.8h0.2c0.4,0,0.8-0.3,0.8-0.8c0-0.4-0.3-0.8-0.8-0.8
		H1.8c-0.2,0-0.3-0.1-0.3-0.3v-6.5c0-0.2,0.2-0.3,0.3-0.3h16.3c0.2,0,0.3,0.1,0.3,0.3v6.5c0,0.2-0.2,0.3-0.3,0.3h-0.2
		c-0.4,0-0.8,0.3-0.8,0.8c0,0.4,0.3,0.8,0.8,0.8h0.2c1,0,1.8-0.8,1.8-1.8v-6.5C20-39.2,19.2-40,18.2-40z"/>
</g>
<path class="st0" d="M57.3-32.7c-0.4,0-0.8,0.3-0.8,0.8v10.4H43.4v-17h8.5v3.9c0,0.4,0.3,0.8,0.8,0.8h4.7c0.3,0,0.6-0.2,0.7-0.5
	c0.1-0.3,0.1-0.6-0.2-0.8l-4.7-4.7c-0.1-0.1-0.1-0.1-0.2-0.1c0,0,0,0-0.1,0c-0.1,0-0.1,0-0.2,0c0,0,0,0,0,0h-10
	c-0.4,0-0.8,0.3-0.8,0.8v18.5c0,0.4,0.3,0.8,0.8,0.8h14.6c0.4,0,0.8-0.3,0.8-0.8v-11.2C58.1-32.3,57.7-32.7,57.3-32.7z M53.4-35.3
	v-2.1l2.1,2.1H53.4z M48.3-28.9V-31c0.4,0.1,0.7,0.4,0.7,0.9c0,0.4,0.3,0.8,0.8,0.8s0.8-0.3,0.8-0.8c0-1.4-1-2.2-2.2-2.4v-0.7
	c0-0.4-0.3-0.8-0.8-0.8s-0.8,0.3-0.8,0.8v0.7c-1.2,0.2-2.2,1-2.2,2.4c0,1.5,1.3,2.1,2.2,2.4v2.2c-0.4-0.1-0.7-0.4-0.7-0.9
	c0-0.4-0.3-0.8-0.8-0.8s-0.8,0.3-0.8,0.8c0,1.4,1,2.2,2.2,2.5v0.7c0,0.4,0.3,0.8,0.8,0.8s0.8-0.3,0.8-0.8V-24
	c1.2-0.2,2.2-1.1,2.2-2.5C50.5-28,49.2-28.5,48.3-28.9z M46-30.2c0-0.5,0.4-0.8,0.7-0.9v1.7C46.2-29.5,46-29.8,46-30.2z M48.3-25.5
	v-1.7c0.5,0.2,0.7,0.4,0.7,0.8C49-25.9,48.6-25.7,48.3-25.5z"/>
<g>
	<path class="st0" d="M57.3-62.1c-0.4,0-0.8,0.3-0.8,0.8v10.4H43.4v-17h8.5v3.9c0,0.4,0.3,0.8,0.8,0.8h4.7c0.3,0,0.6-0.2,0.7-0.5
		c0.1-0.3,0.1-0.6-0.2-0.8l-4.7-4.7c-0.1-0.1-0.1-0.1-0.2-0.1c0,0,0,0-0.1,0c-0.1,0-0.1,0-0.2,0c0,0,0,0,0,0h-10
		c-0.4,0-0.8,0.3-0.8,0.8v18.5c0,0.4,0.3,0.8,0.8,0.8h14.6c0.4,0,0.8-0.3,0.8-0.8v-11.2C58.1-61.7,57.7-62.1,57.3-62.1z M53.4-64.7
		v-2.1l2.1,2.1H53.4z"/>
</g>
<g>
	<line class="st1" x1="47.5" y1="-62.7" x2="47.5" y2="-52.7"/>
	<path class="st1" d="M45.3-55.9c0,1.4,1.4,1.8,2.3,1.8c0.8,0,2.2-0.4,2.2-1.8c0-1.2-1.3-1.6-2.2-1.9h0c-1-0.3-2.2-0.6-2.2-1.9
		c0-1.4,1.5-1.8,2.2-1.8c0.9,0,2.3,0.5,2.3,1.8"/>
</g>
<path class="st0" d="M58,5.7c-0.1,0.3-0.4,0.5-0.7,0.5h-4.7c-0.4,0-0.8-0.3-0.8-0.8V0.8c0-0.3,0.2-0.6,0.5-0.7
	C52.7-0.1,53,0,53.2,0.2l0,0l4.7,4.7C58.1,5.1,58.1,5.4,58,5.7z M48.3,14.5c0.4-0.1,0.7-0.4,0.7-0.9c0-0.4-0.2-0.6-0.7-0.8V14.5z
	 M58.1,8.1v11.2c0,0.4-0.3,0.8-0.8,0.8H42.7c-0.4,0-0.8-0.3-0.8-0.8V0.8c0-0.4,0.3-0.8,0.8-0.8h7.4c0.4,0,0.7,0.3,0.7,0.7v5.6
	c0,0.5,0.4,1,1,1h5.5C57.7,7.3,58.1,7.7,58.1,8.1z M48.3,11.1V9C48.6,9.1,49,9.4,49,9.9c0,0.4,0.3,0.8,0.8,0.8s0.8-0.3,0.8-0.8
	c0-1.4-1-2.2-2.2-2.4V6.7c0-0.4-0.3-0.8-0.8-0.8s-0.8,0.3-0.8,0.8v0.7c-1.2,0.2-2.2,1-2.2,2.4c0,1.5,1.3,2.1,2.2,2.4v2.2
	c-0.4-0.1-0.7-0.4-0.7-0.9c0-0.4-0.3-0.8-0.8-0.8s-0.8,0.3-0.8,0.8c0,1.4,1,2.2,2.2,2.5v0.7c0,0.4,0.3,0.8,0.8,0.8s0.8-0.3,0.8-0.8
	V16c1.2-0.2,2.2-1.1,2.2-2.5C50.5,12,49.2,11.5,48.3,11.1z M46,9.8c0,0.4,0.2,0.6,0.7,0.8V8.9C46.4,9.1,46,9.3,46,9.8z"/>
<g>
	<path class="st2" d="M51.7,40.8c-0.5,0-1-0.4-1-1v-5.6c0-0.4-0.3-0.7-0.7-0.7h-7.4c-0.4,0-0.8,0.3-0.8,0.8v18.5
		c0,0.4,0.3,0.8,0.8,0.8h14.6c0.4,0,0.8-0.3,0.8-0.8V41.6c0-0.4-0.3-0.8-0.8-0.8H51.7z"/>
</g>
<path class="st2" d="M57.8,38.4l-4.7-4.7l0,0c-0.2-0.2-0.5-0.3-0.8-0.2c-0.3,0.1-0.5,0.4-0.5,0.7v4.7c0,0.4,0.3,0.8,0.8,0.8h4.7
	c0.3,0,0.6-0.2,0.7-0.5C58.1,39,58.1,38.6,57.8,38.4z"/>
<g>
	<line class="st1" x1="47.5" y1="40.3" x2="47.5" y2="50.2"/>
	<path class="st1" d="M45.3,47.1c0,1.4,1.4,1.8,2.3,1.8c0.8,0,2.2-0.4,2.2-1.8c0-1.2-1.3-1.6-2.2-1.9h0c-1-0.3-2.2-0.6-2.2-1.9
		c0-1.4,1.5-1.8,2.2-1.8c0.9,0,2.3,0.5,2.3,1.8"/>
</g>
</svg>
