<svg id="Layer_1" data-name="Layer 1" xmlns="http://www.w3.org/2000/svg" viewBox="0 0 20 20"><defs><style>.cls-1{fill:#fff;}</style></defs><title>Navigation_Icons_v1</title><path class="cls-1" d="M10,11.28c-2.72,0-4.5-2.07-4.9-5.68a5.07,5.07,0,0,1,1.19-4,5.06,5.06,0,0,1,7.42,0,5.07,5.07,0,0,1,1.19,4C14.5,9.21,12.72,11.28,10,11.28ZM10,1.5A3.47,3.47,0,0,0,7.41,2.62a3.51,3.51,0,0,0-.82,2.82c.22,2,1,4.34,3.41,4.34s3.19-2.36,3.41-4.35a3.5,3.5,0,0,0-.82-2.81A3.47,3.47,0,0,0,10,1.5Z"/><path class="cls-1" d="M17.73,20H2.27A2.22,2.22,0,0,1,0,17.83V14.92A4.17,4.17,0,0,1,2.93,11c.06,0,1.22-.34,2.58-.78a.74.74,0,0,1,.94.48.75.75,0,0,1-.48.95c-1.39.44-2.58.78-2.59.78A2.65,2.65,0,0,0,1.5,14.92v2.91a.73.73,0,0,0,.77.67H17.73a.73.73,0,0,0,.77-.67V14.92a2.65,2.65,0,0,0-1.93-2.46h0s-1.17-.33-2.54-.77a.75.75,0,0,1-.48-.95.74.74,0,0,1,.94-.48C15.85,10.7,17,11,17,11a4.18,4.18,0,0,1,3,3.89v2.91A2.22,2.22,0,0,1,17.73,20Z"/></svg>