<svg id="Layer_1" data-name="Layer 1" xmlns="http://www.w3.org/2000/svg" viewBox="0 0 20 20"><defs><style>.cls-1{fill:#fff;}</style></defs><title>Navigation_Icons_v1</title><path class="cls-1" d="M10,11.29c-2.72,0-4.5-2.07-4.9-5.69a5.07,5.07,0,0,1,1.19-4,5.06,5.06,0,0,1,7.42,0,5.07,5.07,0,0,1,1.19,4C14.5,9.22,12.72,11.29,10,11.29Z"/><path class="cls-1" d="M17.38,11.44s-.93-.27-2.12-.64a1.06,1.06,0,0,0-1,.24A5.64,5.64,0,0,1,10,12.79,5.68,5.68,0,0,1,5.78,11a1,1,0,0,0-1-.24c-1.19.37-2.11.63-2.12.64A3.67,3.67,0,0,0,0,14.86v3.61A1.59,1.59,0,0,0,1.64,20H18.36A1.59,1.59,0,0,0,20,18.47V14.86A3.67,3.67,0,0,0,17.38,11.44Z"/></svg>