<svg id="Layer_1" data-name="Layer 1" xmlns="http://www.w3.org/2000/svg" viewBox="0 0 20 20"><defs><style>.cls-1{fill:#fff;}</style></defs><title>Navigation_Icons_v1</title><path class="cls-1" d="M16.82,20h-4.6a.75.75,0,0,1-.75-.75V12.38H8.53v6.87a.75.75,0,0,1-.75.75H3.18a.75.75,0,0,1-.75-.75V9.44a.75.75,0,0,1,1.5,0V18.5H7V11.63a.76.76,0,0,1,.75-.75h4.44a.76.76,0,0,1,.75.75V18.5h3.1V9.44a.75.75,0,1,1,1.5,0v9.81A.75.75,0,0,1,16.82,20Z"/><path class="cls-1" d="M19.25,8.9a.75.75,0,0,1-.47-.17L10,1.71l-8.78,7A.75.75,0,0,1,.16,8.61a.76.76,0,0,1,.12-1L9.53.16a.78.78,0,0,1,.94,0l9.25,7.4a.75.75,0,0,1-.47,1.34Z"/></svg>