<svg id="Layer_1" data-name="Layer 1" xmlns="http://www.w3.org/2000/svg" viewBox="0 0 20 20"><defs><style>.cls-1{fill:#fff;}</style></defs><title>Navigation_Icons_v1</title><path class="cls-1" d="M8.36,16.36A.64.64,0,0,0,9,15.72v-.94a2.41,2.41,0,0,0,2.11-2.48c0-1.55-1.1-2.1-2.11-2.43V7.71a1,1,0,0,1,.55.74.65.65,0,1,0,1.3,0A2.27,2.27,0,0,0,9,6.35V5.26a.64.64,0,0,0-.64-.65.65.65,0,0,0-.65.65v1.1a2.3,2.3,0,0,0-2,2.29c0,1.39,1,1.88,2,2.18v2.61a1.11,1.11,0,0,1-.81-1.16.65.65,0,0,0-1.29,0,2.43,2.43,0,0,0,2.1,2.49v1A.65.65,0,0,0,8.36,16.36ZM9.81,12.3A1.09,1.09,0,0,1,9,13.45v-2.2C9.57,11.49,9.81,11.76,9.81,12.3ZM7,8.65a1,1,0,0,1,.71-1V9.46C7.18,9.25,7,9,7,8.65Z"/><path class="cls-1" d="M17.31,7.34a.76.76,0,0,0-.75.76V18.49H3.44v-17h8.47v3.9a.75.75,0,0,0,.75.75h4.65a.75.75,0,0,0,.7-.47.76.76,0,0,0-.17-.82L13.19.22A.86.86,0,0,0,13,.07l-.07,0a.65.65,0,0,0-.2,0h-10a.75.75,0,0,0-.75.75v18.5a.75.75,0,0,0,.75.75H17.31a.75.75,0,0,0,.75-.75V8.1A.75.75,0,0,0,17.31,7.34Zm-3.9-2.69V2.57L15.5,4.65Z"/></svg>