<svg id="Layer_1" data-name="Layer 1" xmlns="http://www.w3.org/2000/svg" viewBox="0 0 20 20"><defs><style>.cls-1{fill:#fff;}</style></defs><title>Navigation_Icons_v1</title><path class="cls-1" d="M19.24,20H.75A.75.75,0,0,1,0,19.25V.75A.76.76,0,0,1,.75,0,.76.76,0,0,1,1.5.75V18.5H19.24a.75.75,0,0,1,0,1.5Z"/><path class="cls-1" d="M19,0H3.72a1,1,0,0,0-1,1V16.1L9,9a.75.75,0,0,1,1-.08l1.76,1.45L16.28,5.2l-.46,0a.73.73,0,0,1-.8-.7.75.75,0,0,1,.69-.8L18,3.57a.74.74,0,0,1,.8.7L19,6.53a.75.75,0,0,1-1.5.11l0-.48-5,5.72a.76.76,0,0,1-1.05.08L9.62,10.51,3.7,17.27H19a1,1,0,0,0,1-1V1A1,1,0,0,0,19,0Z"/></svg>