<svg id="Layer_1" data-name="Layer 1" xmlns="http://www.w3.org/2000/svg" viewBox="0 0 20 20"><defs><style>.cls-1{fill:#fff;}</style></defs><title>Navigation_Icons_v1</title><path class="cls-1" d="M19.25,0H.75A.76.76,0,0,0,0,.75V15a.76.76,0,0,0,.75.75H11.36l3.93,4a.76.76,0,0,0,.54.23.71.71,0,0,0,.28-.06.75.75,0,0,0,.47-.69V15.73h2.67A.76.76,0,0,0,20,15V.75A.76.76,0,0,0,19.25,0ZM10,11.75a.75.75,0,1,1,.75-.75A.76.76,0,0,1,10,11.75Zm.75-3.33v.41a.75.75,0,0,1-1.5,0v-1A.76.76,0,0,1,10,7,1,1,0,1,0,9,6a.75.75,0,1,1-1.5,0,2.51,2.51,0,1,1,3.26,2.39Z"/></svg>