<svg id="Layer_1" data-name="Layer 1" xmlns="http://www.w3.org/2000/svg" viewBox="0 0 20 20"><defs><style>.cls-1{fill:#fff;}</style></defs><title>Navigation_Icons_v1</title><path class="cls-1" d="M14.56,20H5.4a1.75,1.75,0,0,1-1.75-1.74V4.33H16.31V18.26A1.75,1.75,0,0,1,14.56,20ZM5.15,5.83V18.26a.25.25,0,0,0,.25.24h9.16a.25.25,0,0,0,.25-.24V5.83Z"/><path class="cls-1" d="M9.86,19.91a.74.74,0,0,1-.75-.75v-14a.75.75,0,0,1,1.5,0v14A.75.75,0,0,1,9.86,19.91Z"/><path class="cls-1" d="M12.88,19.91a.75.75,0,0,1-.75-.75v-14a.75.75,0,0,1,1.5,0v14A.74.74,0,0,1,12.88,19.91Z"/><path class="cls-1" d="M16.79,5.8H3.17a.75.75,0,1,1,0-1.5H16.79a.75.75,0,0,1,0,1.5Z"/><path class="cls-1" d="M18.16,10.11h-.22a.75.75,0,0,1,0-1.5h.22a.34.34,0,0,0,.34-.33V1.83a.34.34,0,0,0-.34-.33H1.84a.34.34,0,0,0-.34.33V8.28a.34.34,0,0,0,.34.33h.22a.75.75,0,1,1,0,1.5H1.84A1.83,1.83,0,0,1,0,8.28V1.83A1.83,1.83,0,0,1,1.84,0H18.16A1.84,1.84,0,0,1,20,1.83V8.28A1.84,1.84,0,0,1,18.16,10.11Z"/></svg>