<svg id="Layer_1" data-name="Layer 1" xmlns="http://www.w3.org/2000/svg" viewBox="0 0 20 20"><defs><style>.cls-1{fill:#fff;}</style></defs><title>Navigation_Icons_v1</title><path class="cls-1" d="M18.16,0H1.84A1.83,1.83,0,0,0,0,1.83V8.28a1.83,1.83,0,0,0,1.84,1.83h.22a.75.75,0,1,0,0-1.5H1.84a.34.34,0,0,1-.34-.33V1.83a.34.34,0,0,1,.34-.33H18.16a.34.34,0,0,1,.34.33V8.28a.34.34,0,0,1-.34.33h-.22a.75.75,0,0,0,0,1.5h.22A1.84,1.84,0,0,0,20,8.28V1.83A1.84,1.84,0,0,0,18.16,0Z"/><path class="cls-1" d="M17.54,5.05a.76.76,0,0,0-.75-.75H3.17a.75.75,0,1,0,0,1.5h.48V18.26A1.75,1.75,0,0,0,5.4,20h9.16a1.75,1.75,0,0,0,1.75-1.74V5.8h.48A.75.75,0,0,0,17.54,5.05ZM12.88,18.5h-3V5.8h3Z"/></svg>