<?xml version="1.0" encoding="utf-8"?>
<!-- Generator: Adobe Illustrator 22.0.1, SVG Export Plug-In . SVG Version: 6.00 Build 0)  -->
<svg version="1.1" id="Icons" xmlns="http://www.w3.org/2000/svg" xmlns:xlink="http://www.w3.org/1999/xlink" x="0px" y="0px"
	 viewBox="0 0 20 20" style="enable-background:new 0 0 20 20;" xml:space="preserve">
<style type="text/css">
	.st0{fill:#FFFFFF;}
	.st1{fill:none;stroke:#FFFFFF;stroke-width:1.5;stroke-linecap:round;stroke-miterlimit:10;}
	.st2{fill:#0099C0;}
</style>
<path class="st0" d="M18,5.7c-0.1,0.3-0.4,0.5-0.7,0.5h-4.7c-0.4,0-0.8-0.3-0.8-0.8V0.8c0-0.3,0.2-0.6,0.5-0.7
	C12.7-0.1,13,0,13.2,0.2l0,0l4.7,4.7C18.1,5.1,18.1,5.4,18,5.7z M8.3,14.5C8.6,14.3,9,14.1,9,13.6c0-0.4-0.2-0.6-0.7-0.8V14.5z
	 M18.1,8.1v11.2c0,0.4-0.3,0.8-0.8,0.8H2.7c-0.4,0-0.8-0.3-0.8-0.8V0.8C1.9,0.3,2.3,0,2.7,0h7.4c0.4,0,0.7,0.3,0.7,0.7v5.6
	c0,0.5,0.4,1,1,1h5.5C17.7,7.3,18.1,7.7,18.1,8.1z M8.3,11.1V9C8.6,9.1,9,9.4,9,9.9c0,0.4,0.3,0.8,0.8,0.8s0.8-0.3,0.8-0.8
	c0-1.4-1-2.2-2.2-2.4V6.7C8.3,6.3,7.9,6,7.5,6S6.8,6.3,6.8,6.7v0.7c-1.2,0.2-2.2,1-2.2,2.4c0,1.5,1.3,2.1,2.2,2.4v2.2
	C6.4,14.3,6,14.1,6,13.5c0-0.4-0.3-0.8-0.8-0.8s-0.8,0.3-0.8,0.8c0,1.4,1,2.2,2.2,2.5v0.7c0,0.4,0.3,0.8,0.8,0.8s0.8-0.3,0.8-0.8V16
	c1.2-0.2,2.2-1.1,2.2-2.5C10.5,12,9.2,11.5,8.3,11.1z M6,9.8c0,0.4,0.2,0.6,0.7,0.8V8.9C6.4,9.1,6,9.3,6,9.8z"/>
</svg>
