<?xml version="1.0" encoding="utf-8"?>
<!-- Generator: Adobe Illustrator 22.0.1, SVG Export Plug-In . SVG Version: 6.00 Build 0)  -->
<svg version="1.1" id="Icons" xmlns="http://www.w3.org/2000/svg" xmlns:xlink="http://www.w3.org/1999/xlink" x="0px" y="0px"
	 viewBox="0 0 20 20" style="enable-background:new 0 0 20 20;" xml:space="preserve">
<style type="text/css">
	.st0{fill:#FFFFFF;}
	.st1{fill:none;stroke:#FFFFFF;stroke-width:1.5;stroke-linecap:round;stroke-miterlimit:10;}
	.st2{fill:#0099C0;}
</style>
<path class="st0" d="M17.3,7.3c-0.4,0-0.8,0.3-0.8,0.8v10.4H3.4v-17h8.5v3.9c0,0.4,0.3,0.8,0.8,0.8h4.7c0.3,0,0.6-0.2,0.7-0.5
	c0.1-0.3,0.1-0.6-0.2-0.8l-4.7-4.7c-0.1-0.1-0.1-0.1-0.2-0.1c0,0,0,0-0.1,0c-0.1,0-0.1,0-0.2,0c0,0,0,0,0,0h-10
	C2.3,0,1.9,0.3,1.9,0.8v18.5c0,0.4,0.3,0.8,0.8,0.8h14.6c0.4,0,0.8-0.3,0.8-0.8V8.1C18.1,7.7,17.7,7.3,17.3,7.3z M13.4,4.7V2.6
	l2.1,2.1H13.4z M8.3,11.1V9C8.6,9.1,9,9.4,9,9.9c0,0.4,0.3,0.8,0.8,0.8s0.8-0.3,0.8-0.8c0-1.4-1-2.2-2.2-2.4V6.7
	C8.3,6.3,7.9,6,7.5,6S6.8,6.3,6.8,6.7v0.7c-1.2,0.2-2.2,1-2.2,2.4c0,1.5,1.3,2.1,2.2,2.4v2.2C6.4,14.3,6,14.1,6,13.5
	c0-0.4-0.3-0.8-0.8-0.8s-0.8,0.3-0.8,0.8c0,1.4,1,2.2,2.2,2.5v0.7c0,0.4,0.3,0.8,0.8,0.8s0.8-0.3,0.8-0.8V16
	c1.2-0.2,2.2-1.1,2.2-2.5C10.5,12,9.2,11.5,8.3,11.1z M6,9.8c0-0.5,0.4-0.8,0.7-0.9v1.7C6.2,10.5,6,10.2,6,9.8z M8.3,14.5v-1.7
	C8.8,12.9,9,13.2,9,13.6C9,14.1,8.6,14.3,8.3,14.5z"/>
</svg>
