<?xml version="1.0" encoding="utf-8"?>
<!-- Generator: Adobe Illustrator 22.0.1, SVG Export Plug-In . SVG Version: 6.00 Build 0)  -->
<svg version="1.1" id="Icons" xmlns="http://www.w3.org/2000/svg" xmlns:xlink="http://www.w3.org/1999/xlink" x="0px" y="0px"
	 viewBox="0 0 20 20" style="enable-background:new 0 0 20 20;" xml:space="preserve">
<style type="text/css">
	.st0{fill:#FFFFFF;}
	.st1{fill:none;stroke:#FFFFFF;stroke-width:1.5;stroke-linecap:round;stroke-miterlimit:10;}
	.st2{fill:#0099C0;}
</style>
<g>
	<path class="st0" d="M17.5,5.1c0-0.4-0.3-0.8-0.8-0.8H3.2c-0.4,0-0.8,0.3-0.8,0.8s0.3,0.8,0.8,0.8h0.5v12.5c0,1,0.8,1.7,1.8,1.7
		h9.2c1,0,1.8-0.8,1.8-1.7V5.8h0.5C17.2,5.8,17.5,5.5,17.5,5.1z M5.2,18.3V5.8h4.7v12.7H5.4C5.3,18.5,5.2,18.4,5.2,18.3z M14.8,18.3
		c0,0.1-0.1,0.2-0.2,0.2h-1.7V5.8h1.9V18.3z"/>
	<path class="st0" d="M18.2,0H1.8C0.8,0,0,0.8,0,1.8v6.5c0,1,0.8,1.8,1.8,1.8h0.2c0.4,0,0.8-0.3,0.8-0.8c0-0.4-0.3-0.8-0.8-0.8H1.8
		c-0.2,0-0.3-0.1-0.3-0.3V1.8c0-0.2,0.2-0.3,0.3-0.3h16.3c0.2,0,0.3,0.1,0.3,0.3v6.5c0,0.2-0.2,0.3-0.3,0.3h-0.2
		c-0.4,0-0.8,0.3-0.8,0.8c0,0.4,0.3,0.8,0.8,0.8h0.2c1,0,1.8-0.8,1.8-1.8V1.8C20,0.8,19.2,0,18.2,0z"/>
</g>
</svg>
