<?xml version="1.0" encoding="UTF-8"?>
<svg width="880px" height="629px" viewBox="0 0 880 629" version="1.1" xmlns="http://www.w3.org/2000/svg" xmlns:xlink="http://www.w3.org/1999/xlink">
    <!-- Generator: Sketch 50 (54983) - http://www.bohemiancoding.com/sketch -->
    <title>bg-authentication 2</title>
    <desc>Created with Sketch.</desc>
    <defs>
        <linearGradient x1="-3.92419113%" y1="36.203389%" x2="103.720534%" y2="62.7702489%" id="linearGradient-1">
            <stop stop-color="#281F56" offset="35%"></stop>
            <stop stop-color="#690894" offset="58%"></stop>
            <stop stop-color="#6E0B93" offset="63.86%"></stop>
            <stop stop-color="#7B1491" offset="70.47%"></stop>
            <stop stop-color="#92228E" offset="77.44%"></stop>
            <stop stop-color="#B13689" offset="84.62%"></stop>
            <stop stop-color="#B83A88" offset="86%"></stop>
        </linearGradient>
    </defs>
    <g id="Page-1" stroke="none" stroke-width="1" fill="none" fill-rule="evenodd">
        <g id="bg-authentication" fill="url(#linearGradient-1)" fill-rule="nonzero">
            <path d="M223.818299,11.4443667 L212.441968,0.0628811357 L216.02457,0.0628811357 L225.578173,9.62081376 C227.840869,11.8845346 230.857796,13.1421574 234.000429,13.1421574 C237.143061,13.1421574 240.222841,11.8845346 242.422684,9.62081376 L252.101993,0.0628811357 L255.684594,0.0628811357 L244.308264,11.4443667 C241.6056,14.1482555 237.960146,15.6574028 234.063281,15.6574028 C230.166417,15.6574028 226.583815,14.1482555 223.818299,11.4443667 Z M775.413185,33.4527642 L741.66131,67.219934 L756.11742,81.6825952 C758.820084,84.3864841 760.328548,88.0335899 760.328548,91.9322203 C760.328548,95.8308507 758.820084,99.4150755 756.11742,102.181845 L713.629026,144.689493 L747.380901,178.456663 L789.869295,135.949015 C795.526034,130.289713 804.702521,130.289713 810.296407,135.949015 L824.752518,150.411676 L858.504393,116.644507 L844.048282,102.181845 C841.345618,99.4779566 839.837154,95.8308507 839.837154,91.9322203 C839.837154,88.0335899 841.345618,84.4493652 844.048282,81.6825952 L879.811442,45.903229 L879.811442,49.4874538 L845.808157,83.5061482 C843.545461,85.769869 842.288408,88.7881636 842.288408,91.9322203 C842.288408,95.1391583 843.545461,98.1574528 845.808157,100.358293 L860.264267,114.820954 L879.748589,95.3278017 L879.748589,98.9120264 L862.024141,116.644507 L879.748589,134.376987 L879.748589,137.961212 L860.264267,118.46806 L826.512392,152.235229 L860.264267,186.002399 L879.748589,166.509247 L879.748589,170.093472 L862.024141,187.825952 L876.480251,202.288613 C877.925862,203.73488 878.994358,205.43267 879.748589,207.319104 L879.748589,217.757373 C879.05721,219.643807 877.925862,221.341598 876.480251,222.787864 L833.991858,265.295511 L867.743733,299.062681 L879.685737,287.115265 L879.685737,290.69949 L869.503607,300.886234 L879.685737,311.072978 L879.685737,314.657203 L867.743733,302.709787 L833.991858,336.476957 L848.447968,350.939618 C851.150632,353.643507 852.659096,357.290613 852.659096,361.189243 C852.659096,365.087874 851.150632,368.672098 848.447968,371.438868 L805.959574,413.946516 L839.711449,447.713686 L879.685737,407.721284 L879.685737,411.305508 L841.471323,449.537239 L855.927434,463.9999 C860.57853,468.653104 868.183701,468.653104 872.834798,463.9999 L879.685737,457.145856 L879.685737,460.730081 L874.657524,465.760572 C869.000786,471.419874 859.824298,471.419874 854.230412,465.760572 L839.774302,451.297911 L806.022427,485.06508 L820.478537,499.527742 C823.181201,502.231631 824.689665,505.878736 824.689665,509.777367 C824.689665,513.675997 823.181201,517.260222 820.478537,520.026992 L777.990144,562.53464 L811.742018,596.301809 L854.230412,553.794162 C859.887151,548.13486 869.063638,548.13486 874.657524,553.794162 L879.685737,558.824653 L879.685737,562.408877 L872.834798,555.554834 C870.572102,553.291113 867.555175,552.03349 864.412542,552.03349 C861.207057,552.03349 858.190129,553.291113 855.990286,555.554834 L813.501893,598.062481 L827.958003,612.525142 C832.609099,617.178346 840.21427,617.178346 844.865367,612.525142 L879.685737,577.688993 L879.685737,581.273218 L846.625241,614.348695 C840.968502,620.007998 831.792015,620.007998 826.198129,614.348695 L811.742018,599.886034 L782.64124,629 L779.058639,629 L809.919291,598.125362 L776.167417,564.358193 L742.415542,598.125362 L773.276195,629 L769.693593,629 L740.592815,599.886034 L711.492036,629 L707.909435,629 L738.770088,598.125362 L724.313978,583.662701 C722.051282,581.39898 719.034355,580.141358 715.891722,580.141358 C712.686237,580.141358 709.669309,581.39898 707.469466,583.662701 L664.981073,626.170349 L667.809442,629 L664.226841,629 L663.158346,627.931021 L662.089851,629 L658.507249,629 L661.335619,626.170349 L627.583744,592.403179 L593.831869,626.170349 L596.660239,629 L593.329048,629 L592.260553,627.931021 L591.192058,629 L587.672309,629 L590.500679,626.170349 L576.044568,611.707688 C571.393472,607.054484 563.788301,607.054484 559.137204,611.707688 L541.789872,628.874238 L538.207271,628.874238 L557.314478,609.758372 C562.971216,604.09907 572.147704,604.09907 577.74159,609.758372 L592.1977,624.221034 L625.949575,590.453864 L611.493465,575.991203 C608.790801,573.287314 607.282337,569.640208 607.282337,565.741578 C607.282337,561.842947 608.790801,558.258722 611.493465,555.491952 L653.981858,512.984305 L620.292836,479.217135 L577.804443,521.724783 C572.147704,527.384085 562.971216,527.384085 557.37733,521.724783 L542.92122,507.262121 L509.106492,541.029291 L523.562603,555.491952 C526.265267,558.195841 527.77373,561.842947 527.77373,565.741578 C527.77373,569.640208 526.265267,573.224433 523.562603,575.991203 L481.074209,618.49885 L491.507749,628.874238 L487.925148,628.874238 L479.314335,620.259522 L470.703521,628.874238 L467.12092,628.874238 L477.491608,618.49885 L463.035497,604.036189 C457.378759,598.376887 457.378759,589.196241 463.035497,583.59982 L505.523891,541.092172 L471.772016,507.325002 L429.283623,549.769769 C426.580959,552.473658 422.935505,553.982805 419.03864,553.982805 C415.141776,553.982805 411.559174,552.473658 408.793658,549.769769 L394.337547,535.307108 L360.585672,569.074278 L375.041783,583.536939 C380.698522,589.196241 380.698522,598.376887 375.041783,603.973308 L350.152132,628.874238 L346.569531,628.874238 L373.219056,602.212636 C375.481751,599.948915 376.738804,596.930621 376.738804,593.786564 C376.738804,590.642507 375.481751,587.561332 373.219056,585.360492 L358.762946,570.897831 L316.274552,613.405478 C314.011856,615.669199 312.754803,618.687494 312.754803,621.831551 C312.754803,624.409677 313.571888,626.862041 315.080351,628.937119 L312.063424,628.937119 C310.869224,626.79916 310.177844,624.409677 310.177844,621.831551 C310.177844,617.93292 311.686308,614.348695 314.388972,611.581925 L356.877366,569.074278 L323.125491,535.307108 L280.637097,577.814756 C274.980359,583.474058 265.803871,583.474058 260.209985,577.814756 L245.753875,563.352094 L212.002,597.119264 L226.45811,611.581925 C229.160774,614.285814 230.669238,617.93292 230.669238,621.831551 C230.669238,624.346796 230.040711,626.79916 228.783658,628.937119 L225.766731,628.937119 C227.275195,626.924923 228.092279,624.472558 228.092279,621.831551 C228.092279,618.624613 226.835226,615.606318 224.572531,613.405478 L210.11642,598.942817 L180.135705,628.937119 L176.553103,628.937119 L208.356546,597.119264 L174.730376,563.289213 L132.241983,605.796861 C126.585244,611.456163 117.408757,611.456163 111.81487,605.796861 L97.3587601,591.3342 L63.5440326,625.10137 L67.3151918,628.874238 L63.7325905,628.874238 L61.7213056,626.862041 L59.7100207,628.874238 L56.1274195,628.874238 L59.8985787,625.10137 L26.1467038,591.3342 L0,617.492752 L0,613.908527 L24.4496822,589.447766 L9.99357189,574.985104 C7.73087637,572.721384 4.713949,571.463761 1.57131633,571.463761 C1.06849511,571.463761 0.56567388,571.526642 0.0628526534,571.589523 L0.0628526534,569.074278 C0.56567388,569.011397 1.06849511,569.011397 1.57131633,569.011397 C5.46818084,569.011397 9.05078209,570.520544 11.8162988,573.224433 L26.2724091,587.687094 L60.024284,553.919924 L45.5681737,539.457263 C39.9114349,533.797961 39.9114349,524.617315 45.5681737,519.020894 L88.0565674,476.513246 L54.3046925,442.746076 L11.8162988,485.253724 C9.11363474,487.957613 5.46818084,489.46676 1.57131633,489.46676 C1.06849511,489.46676 0.56567388,489.46676 0.0628526534,489.403879 L0.0628526534,486.888633 C0.56567388,486.951515 1.06849511,487.014396 1.57131633,487.014396 C4.77680166,487.014396 7.79372902,485.756773 9.99357189,483.493052 L52.4819656,440.985404 L38.0258553,426.522743 C35.7631598,424.259022 32.7462324,423.0014 29.6035997,423.0014 C26.3981144,423.0014 23.3811871,424.259022 21.1813442,426.522743 L0,447.525042 L0,443.940818 L19.2957646,424.636309 C21.9984287,421.93242 25.6438826,420.423273 29.5407471,420.423273 C33.4376116,420.423273 37.0202128,421.93242 39.7857296,424.636309 L54.2418399,439.09897 L87.9937147,405.3318 L73.5376045,390.869139 C70.8349404,388.16525 69.3264767,384.518145 69.3264767,380.619514 C69.3264767,376.720884 70.8349404,373.136659 73.5376045,370.369889 L116.025998,327.862241 L82.2741233,294.095071 L39.7857296,336.602719 C37.0830655,339.306608 33.4376116,340.815755 29.5407471,340.815755 C25.6438826,340.815755 22.0612813,339.306608 19.2957646,336.602719 L4.83965431,322.140058 L0,326.981905 L0,323.397681 L3.01692736,320.379386 L0,317.361092 L0,313.776867 L4.83965431,318.618714 L47.328048,276.111067 C52.9847868,270.451764 62.1612742,270.451764 67.7551603,276.111067 L82.2112706,290.573728 L115.963145,256.806558 L101.507035,242.343897 C98.8043711,239.640008 97.2959074,235.992902 97.2959074,232.094272 C97.2959074,228.195641 98.8043711,224.611417 101.507035,221.844647 L143.995429,179.336999 L110.243554,145.569829 L67.7551603,188.077477 C62.0984215,193.736779 52.9219341,193.736779 47.328048,188.077477 L32.8719377,173.614816 L0,206.375887 L0,202.791663 L31.0492108,171.728381 L0,140.727982 L0,137.143757 L32.8090851,169.96771 L75.2974788,127.460062 C78.0001428,124.756173 81.6455967,123.247026 85.5424613,123.247026 C89.4393258,123.247026 93.021927,124.756173 95.7874438,127.460062 L110.243554,141.922723 L143.995429,108.155553 L129.539319,93.6928921 C126.836655,90.9890033 125.328191,87.3418974 125.328191,83.443267 C125.328191,79.5446366 126.836655,75.9604119 129.539319,73.1936419 L172.027712,30.6859942 L141.355617,0.0628811357 L144.938219,0.0628811357 L173.850439,28.9882035 L202.76266,0.0628811357 L206.345261,0.0628811357 L175.673166,30.7488753 L190.129276,45.2115365 C195.786015,50.8708387 195.786015,60.0514846 190.129276,65.6479056 L147.640883,108.155553 L181.392758,141.922723 L223.881151,99.4150755 C226.583815,96.7111866 230.229269,95.2020394 234.126134,95.2020394 C238.022998,95.2020394 241.6056,96.7111866 244.371116,99.4150755 L258.827227,113.877737 L292.579101,80.1105668 L278.122991,65.6479056 C272.466252,59.9886034 272.466252,50.8079576 278.122991,45.2115365 L320.548532,2.70388883 L317.908721,0.0628811357 L321.491322,0.0628811357 L322.371259,0.943217035 L323.251196,0.0628811357 L326.833798,0.0628811357 L324.193986,2.70388883 L338.650096,17.16655 C341.352761,19.8704389 342.861224,23.5175447 342.861224,27.4161751 C342.861224,31.3148056 341.352761,34.8990303 338.650096,37.6658003 L296.161703,80.173448 L329.913578,113.940618 L372.401971,71.4329701 C378.05871,65.7736679 387.235197,65.7736679 392.829084,71.4329701 L407.285194,85.8956313 L441.037069,52.1284615 L426.580959,37.6658003 C423.878294,34.9619114 422.369831,31.3148056 422.369831,27.4161751 C422.369831,23.5175447 423.878294,19.93332 426.580959,17.16655 L443.67688,0.0628811357 L447.259481,0.0628811357 L428.340833,18.990103 C426.078137,21.2538239 424.821084,24.2721184 424.821084,27.4161751 C424.821084,30.6231131 426.078137,33.6414076 428.340833,35.8422473 L442.796943,50.3049085 L485.285337,7.79726082 C487.359474,5.72218334 488.616527,2.95541338 488.742233,0 L491.256339,0 C491.067781,3.64710587 489.62217,6.97980606 487.045211,9.55793262 L444.556817,52.0655803 L478.308692,85.8327502 L520.859939,43.4508647 C526.516677,37.7915625 535.693165,37.7915625 541.287051,43.4508647 L555.743161,57.9135259 L589.557889,24.1463561 L575.101778,9.68369489 C572.52482,7.10556833 571.079209,3.709987 570.890651,0.125762271 L573.404757,0.125762271 C573.593315,3.08117565 574.787515,5.84794562 576.861653,7.92302309 L591.317763,22.3856843 L613.630455,0.0628811357 L617.213056,0.0628811357 L593.14049,24.1463561 L626.892365,57.9135259 L669.380759,15.4058782 C675.037497,9.74657603 684.213985,9.74657603 689.807871,15.4058782 L704.263981,29.8685394 L734.118992,0.0628811357 L737.701593,0.0628811357 L706.086708,31.6920924 L739.838583,65.4592622 L773.590458,31.6920924 L742.038426,0.0628811357 L745.621027,0.0628811357 L775.413185,29.8685394 L805.268195,0.0628811357 L808.850796,0.0628811357 L777.235912,31.6920924 L791.692022,46.1547536 C796.343118,50.8079576 803.948289,50.8079576 808.599386,46.1547536 L851.087779,3.64710587 L847.505178,0.0628811357 L851.087779,0.0628811357 L852.910506,1.88643407 L854.733233,0.0628811357 L858.315835,0.0628811357 L854.733233,3.64710587 L880,28.9253224 L880,32.5095471 L852.973359,5.4706588 L810.484965,47.9783065 C804.828227,53.6376087 795.651739,53.6376087 790.057853,47.9783065 L775.413185,33.4527642 Z M108.48368,143.746276 L94.0275695,129.283615 C89.3764731,124.630411 81.771302,124.630411 77.1202057,129.283615 L34.631812,171.791263 L49.0879223,186.253924 C53.7390186,190.907128 61.3441897,190.907128 65.9952861,186.253924 L108.48368,143.746276 Z M80.4513963,292.3344 L65.9952861,277.871738 C61.3441897,273.218534 53.7390186,273.218534 49.0879223,277.871738 L6.59952861,320.379386 L21.0556389,334.842047 C23.3183344,337.105768 26.3352618,338.363391 29.4778944,338.363391 C32.6833798,338.363391 35.7003071,337.105768 37.90015,334.842047 L80.4513963,292.3344 Z M628.715092,59.6741977 L643.171202,74.1368589 C645.433898,76.4005798 648.450825,77.6582025 651.593458,77.6582025 C654.798943,77.6582025 657.81587,76.4005798 660.015713,74.1368589 L702.504107,31.6292112 L688.047997,17.16655 C683.3969,12.513346 675.791729,12.513346 671.140633,17.16655 L628.715092,59.6741977 Z M626.892365,61.4977507 L593.14049,95.2649205 L607.5966,109.727582 C613.253339,115.386884 613.253339,124.56753 607.5966,130.163951 L565.108207,172.671599 L598.860081,206.438768 L641.348475,163.931121 C644.051139,161.227232 647.696593,159.718085 651.593458,159.718085 C655.490322,159.718085 659.072923,161.227232 661.83844,163.931121 L676.29455,178.393782 L710.046425,144.626612 L695.590315,130.163951 C689.933576,124.504649 689.933576,115.324003 695.590315,109.727582 L738.078709,67.219934 L704.326834,33.4527642 L661.83844,75.9604119 C659.135776,78.6643007 655.490322,80.173448 651.593458,80.173448 C647.696593,80.173448 644.113992,78.6643007 641.348475,75.9604119 L626.892365,61.4977507 Z M719.411471,330.629011 L685.659596,364.396181 L700.115706,378.858842 C705.772445,384.518145 705.772445,393.69879 700.115706,399.295211 L657.627312,441.802859 L691.379187,475.570029 L733.867581,433.062381 C739.52432,427.403079 748.700807,427.403079 754.294693,433.062381 L768.750804,447.525042 L802.502678,413.757873 L788.046568,399.295211 C785.343904,396.591323 783.83544,392.944217 783.83544,389.045586 C783.83544,385.146956 785.343904,381.562731 788.046568,378.795961 L830.534962,336.288314 L796.783087,302.521144 L754.294693,345.028791 C748.637954,350.688094 739.461467,350.688094 733.867581,345.028791 L719.411471,330.629011 Z M735.690308,343.331001 C740.341404,347.984205 747.946575,347.984205 752.597672,343.331001 L795.086065,300.823353 L780.629955,286.360692 C775.978859,281.707488 768.373688,281.707488 763.722591,286.360692 L721.234198,328.868339 L735.690308,343.331001 Z M752.534819,434.948815 C747.883723,430.295611 740.278552,430.295611 735.627455,434.948815 L693.139061,477.456463 L707.595172,491.919124 C709.857867,494.182845 712.874795,495.440468 716.017427,495.440468 C719.222913,495.440468 722.23984,494.182845 724.439683,491.919124 L766.928077,449.411477 L752.534819,434.948815 Z M698.355832,397.597421 C703.006928,392.944217 703.006928,385.335599 698.355832,380.682395 L683.899721,366.219734 L641.411328,408.727382 C639.148632,410.991103 637.891579,414.009397 637.891579,417.153454 C637.891579,420.297511 639.148632,423.378686 641.411328,425.579526 L655.867438,440.042187 L698.355832,397.597421 Z M717.651596,328.868339 L683.899721,295.10117 L650.147847,328.868339 L683.899721,362.635509 L717.651596,328.868339 Z M683.836869,291.516945 L726.325262,249.009297 C728.587958,246.745576 729.845011,243.727282 729.845011,240.583225 C729.845011,237.376287 728.587958,234.357993 726.325262,232.157153 L711.869152,217.694492 L669.380759,260.202139 C664.729662,264.855343 664.729662,272.463961 669.380759,277.117165 L683.836869,291.516945 Z M710.109278,215.808058 L676.357403,182.040888 L633.869009,224.548535 C631.166345,227.252424 627.520891,228.761572 623.624027,228.761572 C619.727162,228.761572 616.144561,227.252424 613.379044,224.548535 L598.922934,210.085874 L565.171059,243.853044 L579.627169,258.315705 C585.283908,263.975007 585.283908,273.155653 579.627169,278.752074 L537.138776,321.259722 L570.890651,355.026892 L613.379044,312.519244 C616.081708,309.815355 619.727162,308.306208 623.624027,308.306208 C627.520891,308.306208 631.103493,309.815355 633.869009,312.519244 L648.32512,326.981905 L682.076995,293.214736 L667.620884,278.752074 C661.964145,273.092772 661.964145,263.912126 667.620884,258.315705 L710.109278,215.808058 Z M632.046282,314.342797 C629.783587,312.079076 626.76666,310.821454 623.624027,310.821454 C620.481394,310.821454 617.401614,312.079076 615.201771,314.342797 L572.713378,356.850445 L587.169488,371.313106 C589.432183,373.576827 592.449111,374.83445 595.591743,374.83445 C598.797229,374.83445 601.814156,373.576827 604.013999,371.313106 L646.502393,328.805458 L632.046282,314.342797 Z M535.316049,390.680496 L569.067924,356.913326 L535.316049,323.146156 L501.564174,356.850445 L535.316049,390.680496 Z M535.316049,394.201839 L492.827655,436.709487 C490.56496,438.973208 489.307907,441.991503 489.307907,445.135559 C489.307907,448.342497 490.56496,451.360792 492.827655,453.561632 L507.283765,468.024293 L549.772159,425.516645 C552.034855,423.252924 553.291908,420.23463 553.291908,417.090573 C553.291908,413.946516 552.034855,410.86534 549.772159,408.664501 L535.316049,394.201839 Z M499.8043,355.089773 L533.556175,321.322603 L519.100064,306.859942 C516.3974,304.156053 514.888937,300.508947 514.888937,296.610317 C514.888937,292.711686 516.3974,289.127462 519.100064,286.360692 L561.588458,243.853044 L527.77373,210.085874 L485.285337,252.593522 C479.628598,258.252824 470.452111,258.252824 464.858224,252.593522 L450.402114,238.130861 L416.650239,271.898031 L431.10635,286.360692 C433.809014,289.064581 435.317477,292.711686 435.317477,296.610317 C435.317477,300.508947 433.809014,304.093172 431.10635,306.859942 L388.617956,349.36759 L422.369831,383.13476 L464.858224,340.627112 C470.514963,334.96781 479.691451,334.96781 485.285337,340.627112 L499.8043,355.089773 Z M483.525462,342.387784 C481.262767,340.124063 478.24584,338.86644 475.103207,338.86644 C471.897722,338.86644 468.880794,340.124063 466.680951,342.387784 L424.129705,384.895431 L438.585815,399.358093 C443.236912,404.011297 450.842083,404.011297 455.493179,399.358093 L497.981573,356.850445 L483.525462,342.387784 Z M386.795229,418.662601 L420.547104,384.895431 L386.795229,351.128262 L353.043354,384.895431 L386.795229,418.662601 Z M386.795229,422.246826 L344.306835,464.754474 C342.04414,467.018195 340.787087,470.036489 340.787087,473.180546 C340.787087,476.387484 342.04414,479.405778 344.306835,481.606618 L358.762946,496.069279 L401.251339,453.561632 C403.514035,451.297911 404.771088,448.279616 404.771088,445.135559 C404.771088,441.928621 403.514035,438.910327 401.251339,436.709487 L386.795229,422.246826 Z M351.28348,383.13476 L385.035355,349.36759 L370.579244,334.904929 C364.922506,329.245626 364.922506,320.064981 370.579244,314.468559 L413.067638,271.960912 L379.315763,238.193742 L336.827369,280.70139 C331.170631,286.360692 321.994143,286.360692 316.400257,280.70139 L301.944147,266.238728 L268.192272,300.005898 L282.648382,314.468559 C288.305121,320.127862 288.305121,329.308507 282.648382,334.904929 L240.097136,377.349695 L273.849011,411.116865 L316.337404,368.609217 C321.994143,362.949915 331.170631,362.949915 336.764517,368.609217 L351.28348,383.13476 Z M335.004643,370.43277 C330.353546,365.779566 322.748375,365.779566 318.097279,370.43277 L275.608885,412.940418 L290.064995,427.403079 C292.327691,429.6668 295.344618,430.924423 298.487251,430.924423 C301.692736,430.924423 304.709664,429.6668 306.909506,427.403079 L349.460753,384.895431 L335.004643,370.43277 Z M272.089136,412.940418 L238.337262,379.173248 L204.585387,412.940418 L238.337262,446.707588 L272.089136,412.940418 Z M195.786015,492.736579 C193.52332,495.0003 192.266267,498.018594 192.266267,501.162651 C192.266267,504.306708 193.52332,507.387884 195.786015,509.588723 L210.242126,524.051385 L252.730519,481.543737 C254.993215,479.280016 256.250268,476.261721 256.250268,473.117665 C256.250268,469.910727 254.993215,466.892432 252.730519,464.691593 L238.274409,450.228931 L195.786015,492.736579 Z M202.76266,411.116865 L236.514535,377.349695 L222.058424,362.887034 C219.35576,360.183145 217.847297,356.536039 217.847297,352.637409 C217.847297,348.738778 219.35576,345.154554 222.058424,342.387784 L264.546818,299.880136 L230.794943,266.112966 L188.30655,308.620614 C182.649811,314.279916 173.473323,314.279916 167.879437,308.620614 L153.423327,294.157953 L119.671452,327.925122 L134.127562,342.387784 C136.830226,345.091672 138.33869,348.738778 138.33869,352.637409 C138.33869,356.536039 136.830226,360.120264 134.127562,362.887034 L91.6391686,405.394682 L125.391043,439.161851 L167.879437,396.654204 C173.536176,390.994902 182.712663,390.994902 188.30655,396.654204 L202.76266,411.116865 Z M186.483823,398.414876 C181.832726,393.761671 174.227555,393.761671 169.576459,398.414876 L127.088065,440.922523 L141.544175,455.385184 C146.195272,460.038388 153.800443,460.038388 158.451539,455.385184 L200.939933,412.877537 L186.483823,398.414876 Z M169.576459,306.797061 C174.227555,311.450265 181.832726,311.450265 186.483823,306.797061 L228.972216,264.289413 L214.516106,249.826752 C209.86501,245.173548 202.259839,245.173548 197.608742,249.826752 L155.120349,292.3344 L169.576459,306.797061 Z M266.306692,230.522243 L232.554818,264.352294 L266.306692,298.119464 L300.058567,264.352294 L266.306692,230.522243 Z M266.306692,227.0009 L308.795086,184.493252 C311.057782,182.229531 312.314835,179.211237 312.314835,176.06718 C312.314835,172.860242 311.057782,169.841947 308.795086,167.641108 L294.338976,153.178446 L251.850582,195.686094 C249.587887,197.949815 248.330834,200.96811 248.330834,204.112166 C248.330834,207.256223 249.587887,210.337399 251.850582,212.538239 L266.306692,227.0009 Z M266.306692,301.703689 L223.818299,344.211337 C221.555603,346.475057 220.29855,349.493352 220.29855,352.637409 C220.29855,355.781466 221.555603,358.862641 223.818299,361.063481 L238.274409,375.526142 L280.762803,333.018494 C285.413899,328.36529 285.413899,320.756673 280.762803,316.103469 L266.306692,301.703689 Z M318.097279,278.814956 C322.748375,283.46816 330.353546,283.46816 335.004643,278.814956 L377.493036,236.307308 L363.036926,221.844647 C360.77423,219.580926 357.757303,218.323303 354.61467,218.323303 C351.472038,218.323303 348.392258,219.580926 346.192415,221.844647 L303.704021,264.352294 L318.097279,278.814956 Z M414.827512,202.540138 L381.075637,236.307308 L414.827512,270.074478 L448.579387,236.307308 L414.827512,202.540138 Z M414.827512,198.955913 L457.315906,156.448266 C459.578602,154.184545 460.835655,151.16625 460.835655,148.022193 C460.835655,144.815255 459.578602,141.796961 457.315906,139.596121 L442.859796,125.13346 L400.371402,167.578227 C398.108707,169.841947 396.851653,172.860242 396.851653,176.004299 C396.851653,179.211237 398.108707,182.229531 400.371402,184.430371 L414.827512,198.955913 Z M414.827512,273.658702 L372.339119,316.16635 C367.688022,320.819554 367.688022,328.428172 372.339119,333.081376 L386.795229,347.544037 L429.283623,305.036389 C431.546318,302.772668 432.803371,299.754374 432.803371,296.610317 C432.803371,293.403379 431.546318,290.385084 429.283623,288.184245 L414.827512,273.658702 Z M466.618099,250.769969 C468.880794,253.03369 471.897722,254.291313 475.040354,254.291313 C478.24584,254.291313 481.262767,253.03369 483.46261,250.769969 L525.951003,208.262321 L511.494893,193.79966 C506.843797,189.146456 499.238626,189.146456 494.587529,193.79966 L452.099136,236.307308 L466.618099,250.769969 Z M563.348332,174.495151 L529.596457,208.262321 L563.348332,242.029491 L597.100207,208.262321 L563.348332,174.495151 Z M563.348332,170.910927 L605.836726,128.403279 C610.487822,123.750075 610.487822,116.141458 605.836726,111.488254 L591.380616,97.0255923 L548.892222,139.53324 C546.629526,141.796961 545.372473,144.815255 545.372473,147.959312 C545.372473,151.16625 546.629526,154.184545 548.892222,156.385384 L563.348332,170.910927 Z M563.348332,245.613716 L520.859939,288.121364 C518.597243,290.385084 517.34019,293.403379 517.34019,296.547436 C517.34019,299.754374 518.597243,302.772668 520.859939,304.973508 L535.316049,319.436169 L577.804443,276.928521 C582.455539,272.275317 582.455539,264.6667 577.804443,260.013496 L563.348332,245.613716 Z M615.138919,222.787864 C617.401614,225.051585 620.418542,226.309207 623.561174,226.309207 C626.703807,226.309207 629.783587,225.051585 631.98343,222.787864 L674.471823,180.280216 L660.015713,165.817555 C657.753018,163.553834 654.73609,162.296211 651.593458,162.296211 C648.387972,162.296211 645.371045,163.553834 643.171202,165.817555 L600.682808,208.325202 L615.138919,222.787864 Z M557.565888,59.6741977 L591.317763,93.4413676 L625.069638,59.6741977 L591.317763,25.9070279 L557.565888,59.6741977 Z M480.194272,87.7191842 L494.650382,102.181845 C496.913078,104.445566 499.930005,105.703189 503.072638,105.703189 C506.278123,105.703189 509.29505,104.445566 511.494893,102.181845 L553.983287,59.6741977 L539.527177,45.2115365 C534.87608,40.5583325 527.270909,40.5583325 522.619813,45.2115365 L480.194272,87.7191842 Z M444.61967,123.309907 L459.07578,137.772568 C461.778444,140.476457 463.286908,144.123563 463.286908,148.022193 C463.286908,151.920824 461.778444,155.505048 459.07578,158.271818 L416.587387,200.779466 L450.339261,234.546636 L492.827655,192.038988 C498.484394,186.379686 507.660881,186.379686 513.254768,192.038988 L527.710878,206.50165 L561.462753,172.73448 L547.006642,158.271818 C544.303978,155.56793 542.795515,151.920824 542.795515,148.022193 C542.795515,144.123563 544.303978,140.539338 547.006642,137.772568 L589.495036,95.2649205 L555.743161,61.4977507 L513.254768,104.005398 C507.598029,109.664701 498.421541,109.664701 492.827655,104.005398 L478.371545,89.5427372 L444.61967,123.309907 Z M409.045068,87.7191842 L442.796943,121.486354 L476.548818,87.7191842 L442.796943,53.9520144 L409.045068,87.7191842 Z M331.673452,115.764171 L346.129562,130.226832 C348.392258,132.490553 351.409185,133.748176 354.551818,133.748176 C357.69445,133.748176 360.77423,132.490553 362.974073,130.226832 L405.462467,87.7191842 L391.006357,73.256523 C386.35526,68.603319 378.750089,68.603319 374.098993,73.256523 L331.673452,115.764171 Z M329.850725,117.524843 L296.09885,151.292012 L310.55496,165.754674 C313.257624,168.458562 314.766088,172.105668 314.766088,176.004299 C314.766088,179.902929 313.257624,183.487154 310.55496,186.253924 L268.066567,228.761572 L301.818442,262.528741 L344.306835,220.021094 C347.009499,217.317205 350.654953,215.808058 354.551818,215.808058 C358.448682,215.808058 362.031283,217.317205 364.7968,220.021094 L379.252911,234.483755 L413.004785,200.716585 L398.548675,186.253924 C395.846011,183.550035 394.337547,179.902929 394.337547,176.004299 C394.337547,172.105668 395.846011,168.521444 398.548675,165.754674 L441.037069,123.247026 L407.285194,89.479856 L364.7968,131.987504 C362.094136,134.691393 358.448682,136.20054 354.551818,136.20054 C350.654953,136.20054 347.072352,134.691393 344.306835,131.987504 L329.850725,117.524843 Z M294.338976,78.4127762 L336.764517,35.9051285 C339.027212,33.6414076 340.284265,30.6231131 340.284265,27.4790563 C340.284265,24.2721184 339.027212,21.2538239 336.764517,19.0529841 L322.308407,4.5903229 L279.820013,47.0979706 C275.168917,51.7511746 275.168917,59.3597921 279.820013,64.0129961 L294.338976,78.4127762 Z M260.524248,115.764171 L294.276123,149.531341 L328.090851,115.764171 L294.338976,81.9970009 L260.524248,115.764171 Z M183.152632,143.746276 L197.608742,158.208937 C202.259839,162.862141 209.86501,162.862141 214.516106,158.208937 L257.0045,115.70129 L242.548389,101.238628 C240.285694,98.9749075 237.268767,97.7172848 234.126134,97.7172848 C230.983501,97.7172848 227.903721,98.9749075 225.703878,101.238628 L183.152632,143.746276 Z M181.329905,145.506948 L147.57803,179.274118 L162.03414,193.736779 C164.736805,196.440668 166.245268,200.087774 166.245268,203.986404 C166.245268,207.885034 164.736805,211.469259 162.03414,214.236029 L119.545747,256.743677 L153.360474,290.573728 L195.848868,248.06608 C198.551532,245.362191 202.196986,243.853044 206.09385,243.853044 C209.990715,243.853044 213.573316,245.362191 216.338833,248.06608 L230.794943,262.528741 L264.546818,228.761572 L250.090708,214.29891 C247.388044,211.595021 245.87958,207.947916 245.87958,204.049285 C245.87958,200.150655 247.388044,196.56643 250.090708,193.79966 L292.579101,151.292012 L258.827227,117.524843 L216.338833,160.03249 C210.682094,165.691792 201.505607,165.691792 195.911721,160.03249 L181.329905,145.506948 Z M145.818156,106.394882 L188.30655,63.8872338 C190.569245,61.6235129 191.826298,58.6052184 191.826298,55.4611617 C191.826298,52.2542237 190.569245,49.2359292 188.30655,47.0350895 L173.850439,32.5724283 L131.362046,75.080076 C129.09935,77.3437969 127.842297,80.3620914 127.842297,83.5061482 C127.842297,86.7130861 129.09935,89.7313806 131.362046,91.9322203 L145.818156,106.394882 Z M145.818156,177.576327 L179.570031,143.809157 L145.818156,109.979106 L112.066281,143.746276 L145.818156,177.576327 Z M117.785872,254.983005 L160.274266,212.475357 C162.536962,210.211637 163.794015,207.193342 163.794015,204.049285 C163.794015,200.905228 162.536962,197.824053 160.274266,195.623213 L145.818156,181.160552 L103.329762,223.6682 C101.067067,225.93192 99.8100136,228.950215 99.8100136,232.094272 C99.8100136,235.30121 101.067067,238.319504 103.329762,240.520344 L117.785872,254.983005 Z M117.785872,326.164451 L151.537747,292.397281 L117.785872,258.630111 L84.0339976,292.397281 L117.785872,326.164451 Z M89.753589,403.571129 L132.241983,361.063481 C134.504678,358.79976 135.761731,355.781466 135.761731,352.637409 C135.761731,349.493352 134.504678,346.412176 132.241983,344.211337 L117.785872,329.748675 L75.2974788,372.256323 C73.0347832,374.520044 71.7777302,377.538338 71.7777302,380.682395 C71.7777302,383.889333 73.0347832,386.907628 75.2974788,389.108467 L89.753589,403.571129 Z M89.753589,474.752574 L123.505464,440.985404 L89.753589,407.218235 L56.0017142,440.985404 L89.753589,474.752574 Z M61.7841583,552.159252 L104.272552,509.651605 C106.535247,507.387884 107.792301,504.369589 107.792301,501.225532 C107.792301,498.081476 106.535247,495.0003 104.272552,492.79946 L89.8164417,478.336799 L47.328048,520.844447 C42.6769516,525.497651 42.6769516,533.106268 47.328048,537.759472 L61.7841583,552.159252 Z M95.5360331,589.510647 L61.7841583,555.743477 L28.0322834,589.510647 L61.7841583,623.277817 L95.5360331,589.510647 Z M172.970502,561.528541 L158.514392,547.06588 C153.863295,542.412676 146.258124,542.412676 141.607028,547.06588 L99.1186344,589.573528 L113.574745,604.036189 C118.225841,608.689393 125.831012,608.689393 130.482108,604.036189 L172.970502,561.528541 Z M174.730376,559.704989 L208.482251,525.937819 L194.026141,511.475157 C191.323477,508.771269 189.815013,505.124163 189.815013,501.225532 C189.815013,497.326902 191.323477,493.742677 194.026141,490.975907 L236.514535,448.46826 L202.76266,414.70109 L160.274266,457.208737 C154.617527,462.86804 145.44104,462.86804 139.847154,457.208737 L125.391043,442.746076 L91.6391686,476.513246 L106.095279,490.975907 C108.797943,493.679796 110.306407,497.326902 110.306407,501.225532 C110.306407,505.124163 108.797943,508.708387 106.095279,511.475157 L63.6068852,553.982805 L97.3587601,587.749975 L139.847154,545.242327 C145.503893,539.583025 154.68038,539.583025 160.274266,545.242327 L174.730376,559.704989 Z M244.056853,561.528541 L210.304978,527.761372 L176.553103,561.528541 L210.304978,595.295711 L244.056853,561.528541 Z M321.491322,533.483555 L307.035212,519.020894 C304.772516,516.757173 301.755589,515.49955 298.612956,515.49955 C295.407471,515.49955 292.390544,516.757173 290.190701,519.020894 L247.639454,561.528541 L262.095565,575.991203 C266.746661,580.644407 274.351832,580.644407 279.002928,575.991203 L321.491322,533.483555 Z M323.251196,531.722883 L357.003071,497.955713 L342.546961,483.493052 C336.890222,477.83375 336.890222,468.653104 342.546961,463.056683 L385.035355,420.549035 L351.28348,386.781865 L308.795086,429.289513 C306.092422,431.993402 302.446968,433.502549 298.550104,433.502549 C294.653239,433.502549 291.070638,431.993402 288.305121,429.289513 L273.849011,414.826852 L240.097136,448.46826 L254.553246,462.930921 C260.209985,468.590223 260.209985,477.770869 254.553246,483.36729 L212.064853,525.874938 L245.816727,559.642107 L288.305121,517.13446 C291.007785,514.430571 294.653239,512.921424 298.550104,512.921424 C302.446968,512.921424 306.029569,514.430571 308.795086,517.13446 L323.251196,531.722883 Z M392.577673,533.483555 L358.825798,499.716385 L325.073923,533.483555 L358.825798,567.250725 L392.577673,533.483555 Z M470.012142,505.438568 L455.556032,490.975907 C453.293336,488.712186 450.276409,487.454564 447.133776,487.454564 C443.928291,487.454564 440.911363,488.712186 438.711521,490.975907 L396.223127,533.483555 L410.679237,547.946216 C412.941933,550.209937 415.95886,551.46756 419.101493,551.46756 C422.244125,551.46756 425.323905,550.209937 427.523748,547.946216 L470.012142,505.438568 Z M471.772016,503.677897 L505.523891,469.910727 L491.067781,455.448066 C488.365117,452.744177 486.856653,449.097071 486.856653,445.19844 C486.856653,441.29981 488.365117,437.715585 491.067781,434.948815 L533.556175,392.441168 L499.8043,358.673998 L457.315906,401.181646 C451.659167,406.840948 442.48268,406.840948 436.888794,401.181646 L422.432683,386.718984 L388.680809,420.486154 L403.136919,434.948815 C405.839583,437.652704 407.348047,441.29981 407.348047,445.19844 C407.348047,449.097071 405.839583,452.681296 403.136919,455.448066 L360.648525,497.955713 L394.4004,531.722883 L436.888794,489.215235 C439.591458,486.511347 443.236912,485.002199 447.133776,485.002199 C451.030641,485.002199 454.613242,486.511347 457.378759,489.215235 L471.772016,503.677897 Z M507.346618,542.789963 L464.858224,585.297611 C462.595529,587.561332 461.338476,590.579626 461.338476,593.723683 C461.338476,596.86774 462.595529,599.948915 464.858224,602.149755 L479.314335,616.612416 L521.802728,574.104769 C524.065424,571.841048 525.322477,568.822753 525.322477,565.678696 C525.322477,562.471758 524.065424,559.453464 521.802728,557.252624 L507.346618,542.789963 Z M541.098493,505.438568 L507.346618,471.671399 L473.594743,505.438568 L507.346618,539.205738 L541.098493,505.438568 Z M618.532962,477.456463 L604.076852,462.993802 C601.814156,460.730081 598.797229,459.472458 595.654596,459.472458 C592.449111,459.472458 589.432183,460.730081 587.232341,462.993802 L544.743947,505.50145 L559.200057,519.964111 C563.851153,524.617315 571.456325,524.617315 576.107421,519.964111 L618.532962,477.456463 Z M620.292836,475.63291 L654.044711,441.86574 L639.588601,427.403079 C636.885937,424.69919 635.377473,421.052084 635.377473,417.153454 C635.377473,413.254824 636.885937,409.670599 639.588601,406.903829 L682.076995,364.396181 L648.32512,330.629011 L605.836726,373.136659 C600.179987,378.795961 591.0035,378.795961 585.409614,373.136659 L570.953503,358.673998 L537.138776,392.441168 L551.594886,406.903829 C554.29755,409.607718 555.806014,413.254824 555.806014,417.153454 C555.806014,421.052084 554.29755,424.636309 551.594886,427.403079 L509.106492,469.910727 L542.858367,503.677897 L585.346761,461.170249 C591.0035,455.510947 600.179987,455.510947 605.773873,461.170249 L620.292836,475.63291 Z M655.867438,511.223633 L689.619313,477.456463 L655.867438,443.689293 L622.115563,477.456463 L655.867438,511.223633 Z M627.835155,588.693192 L670.323548,546.185544 C674.974645,541.53234 674.974645,533.923723 670.323548,529.270519 L655.867438,514.807858 L613.379044,557.315505 C611.116349,559.579226 609.859296,562.597521 609.859296,565.741578 C609.859296,568.948515 611.116349,571.96681 613.379044,574.16765 L627.835155,588.693192 Z M774.5961,562.408877 L760.13999,547.946216 C754.483251,542.286914 754.483251,533.106268 760.13999,527.509847 L802.628384,485.002199 L768.876509,451.235029 L726.388115,493.742677 C723.685451,496.446566 720.039997,497.955713 716.143133,497.955713 C712.246268,497.955713 708.663667,496.446566 705.89815,493.742677 L691.44204,479.280016 L657.690165,513.047186 L672.146275,527.509847 C677.803014,533.169149 677.803014,542.349795 672.146275,547.946216 L629.657882,590.453864 L663.409756,624.221034 L705.89815,581.713386 C708.600814,579.009497 712.246268,577.50035 716.143133,577.50035 C720.039997,577.50035 723.622598,579.009497 726.388115,581.713386 L740.844225,596.176047 L774.5961,562.408877 Z M804.388258,486.762871 L761.899864,529.270519 C757.248768,533.923723 757.248768,541.53234 761.899864,546.185544 L776.355975,560.648206 L818.844368,518.140558 C821.107064,515.876837 822.364117,512.858542 822.364117,509.714486 C822.364117,506.507548 821.107064,503.489253 818.844368,501.288413 L804.388258,486.762871 Z M804.388258,415.644307 L770.636383,449.411477 L804.388258,483.178646 L838.140133,449.411477 L804.388258,415.644307 Z M832.357689,338.174748 L789.869295,380.682395 C787.6066,382.946116 786.349546,385.964411 786.349546,389.108467 C786.349546,392.315405 787.6066,395.3337 789.869295,397.53454 L804.325405,411.997201 L846.813799,369.489553 C849.076495,367.225832 850.333548,364.207538 850.333548,361.063481 C850.333548,357.856543 849.076495,354.838249 846.813799,352.637409 L832.357689,338.174748 Z M832.357689,267.056183 L798.605814,300.823353 L832.357689,334.590523 L866.109564,300.823353 L832.357689,267.056183 Z M860.389972,189.586624 L817.901578,232.094272 C815.638883,234.357993 814.38183,237.376287 814.38183,240.520344 C814.38183,243.727282 815.638883,246.745576 817.901578,248.946416 L832.357689,263.409077 L874.846082,220.90143 C877.108778,218.637709 878.365831,215.619414 878.365831,212.475357 C878.365831,209.331301 877.108778,206.250125 874.846082,204.049285 L860.389972,189.586624 Z M749.203628,180.280216 L763.659739,194.742877 C768.310835,199.396081 775.916006,199.396081 780.567102,194.742877 L823.055496,152.235229 L808.599386,137.772568 C803.948289,133.119364 796.343118,133.119364 791.692022,137.772568 L749.203628,180.280216 Z M747.443754,182.040888 L713.691879,215.808058 L728.147989,230.270719 C730.850654,232.974608 732.359117,236.621713 732.359117,240.520344 C732.359117,244.418974 730.850654,248.003199 728.147989,250.769969 L685.659596,293.277617 L719.411471,327.044787 L761.899864,284.537139 C767.556603,278.877837 776.73309,278.877837 782.326977,284.537139 L796.783087,298.9998 L830.534962,265.23263 L816.078852,250.769969 C813.376187,248.06608 811.867724,244.418974 811.867724,240.520344 C811.867724,236.621713 813.376187,233.037489 816.078852,230.270719 L858.567245,187.763071 L824.81537,153.995901 L782.326977,196.503549 C776.670238,202.162851 767.49375,202.162851 761.899864,196.503549 L747.443754,182.040888 Z M711.869152,146.450165 L678.117277,180.217335 L711.869152,213.984505 L745.621027,180.217335 L711.869152,146.450165 Z M739.901436,69.043487 L697.413042,111.551135 C692.761946,116.204339 692.761946,123.812956 697.413042,128.46616 L711.869152,142.928821 L754.357546,100.421174 C756.620241,98.1574528 757.877294,95.1391583 757.877294,91.9951015 C757.877294,88.7881636 756.620241,85.769869 754.357546,83.5690293 L739.901436,69.043487 Z M0,82.2485254 L0,85.8327502 L25.2667667,60.5545336 L39.534319,74.8285514 L39.7228769,75.0171948 C41.9855725,77.2809157 43.2426255,80.2992102 43.2426255,83.443267 C43.2426255,86.6502049 41.9855725,89.6684995 39.7228769,91.8693392 L0,131.673098 L0,135.257323 L41.5456039,93.6928921 C44.248268,90.9890033 45.7567317,87.3418974 45.7567317,83.443267 C45.7567317,79.5446366 44.248268,75.9604119 41.5456039,73.1936419 L27.0894936,58.7309807 L60.8413685,24.9638109 L75.2974788,39.4264721 C78.0001428,42.1303609 81.6455967,43.6395081 85.5424613,43.6395081 C89.4393258,43.6395081 93.021927,42.1303609 95.7874438,39.4264721 L135.133205,0.0628811357 L131.550604,0.0628811357 L93.9647168,37.6658003 C91.7020213,39.9295211 88.6850939,41.1871439 85.5424613,41.1871439 C82.3369759,41.1871439 79.3200486,39.9295211 77.1202057,37.6658003 L62.6640954,23.2031391 L85.7310192,0.0628811357 L82.148418,0.0628811357 L60.8413685,21.4424673 L39.4714663,0.0628811357 L35.8888651,0.0628811357 L59.0814942,23.2031391 L25.2667667,56.9703089 L0,31.6920924 L0,35.2763171 L23.5068924,58.7938618 L0,82.2485254 Z" id="Shape"></path>
        </g>
    </g>
</svg>