<?xml version="1.0" encoding="utf-8"?>
<!-- Generator: Adobe Illustrator 22.0.1, SVG Export Plug-In . SVG Version: 6.00 Build 0)  -->
<svg version="1.1" xmlns="http://www.w3.org/2000/svg" xmlns:xlink="http://www.w3.org/1999/xlink" x="0px" y="0px"
	 viewBox="0 0 1400 1000" style="enable-background:new 0 0 1400 1000;" xml:space="preserve">
<style type="text/css">
	.st0{fill:#281F56;}
	.st1{clip-path:url(#SVGID_2_);fill:none;stroke:url(#SVGID_3_);stroke-width:2;stroke-miterlimit:10;}
	.st2{clip-path:url(#SVGID_5_);fill:none;stroke:url(#SVGID_6_);stroke-width:4.5;stroke-miterlimit:10;}
	.st3{fill:url(#SVGID_7_);}
	.st4{fill:url(#SVGID_8_);}
	.st5{fill:#FFFFFF;}
	.st6{fill:none;stroke:#FFFFFF;stroke-width:2;stroke-miterlimit:10;}
	.st7{fill:#58595B;}
	.st8{fill:url(#);}
</style>
<g id="BG">
</g>
<g id="Pattern">
	<linearGradient id="SVGID_2_" gradientUnits="userSpaceOnUse" x1="-60.2642" y1="151.7281" x2="1433.3861" y2="848.2288">
		<stop  offset="0.3497" style="stop-color:#281F56"/>
		<stop  offset="0.5811" style="stop-color:#690894"/>
		<stop  offset="0.6688" style="stop-color:#6E0B93"/>
		<stop  offset="0.7677" style="stop-color:#7B1491"/>
		<stop  offset="0.872" style="stop-color:#92228E"/>
		<stop  offset="0.9794" style="stop-color:#B13689"/>
		<stop  offset="1" style="stop-color:#B83A88"/>
	</linearGradient>
	<path style="fill:url(#SVGID_2_);" d="M10.6,136.1l24.7,24.7c4,4,6.2,9.4,6.2,15.1S39.3,187,35.3,191L0,226.3v6.4l38.5-38.5
		c4.9-4.9,7.5-11.4,7.5-18.3s-2.7-13.4-7.5-18.3l-24.7-24.7l62.5-62.5L101,95.2c4.9,4.9,11.4,7.5,18.3,7.5c6.9,0,13.4-2.7,18.3-7.5
		l74.7-74.7l62.5,62.5L200,157.7c-10.1,10.1-10.1,26.4,0,36.5l24.7,24.7l-62.5,62.5l-24.7-24.7c-4.9-4.9-11.4-7.6-18.3-7.6
		c-6.9,0-13.4,2.7-18.3,7.6l-74.7,74.7L0,305.1v6.4l23.1,23.1L0,357.7v6.4l26.3-26.3L51,362.5c5,5,11.6,7.5,18.3,7.5
		c6.6,0,13.2-2.5,18.3-7.5l74.7-74.7l62.5,62.5L150,425c-10.1,10.1-10.1,26.4,0,36.5l24.7,24.7l-62.5,62.5L87.5,524
		c-4.9-4.9-11.4-7.6-18.3-7.6c-6.9,0-13.4,2.7-18.3,7.6L0,575v6.4l54.2-54.2c4-4,9.4-6.2,15.1-6.2c5.7,0,11.1,2.2,15.1,6.2
		l24.7,24.7l-74.7,74.7c-4,4-9.4,6.2-15.1,6.2c-5.7,0-11.1-2.2-15.1-6.2L0,622.4v6.4l1,1c4.9,4.9,11.4,7.5,18.3,7.5
		c6.9,0,13.4-2.7,18.3-7.5l74.7-74.7l62.5,62.5L100,692.3c-10.1,10.1-10.1,26.4,0,36.5l24.7,24.7L62.3,816l-24.7-24.7
		c-4.9-4.9-11.4-7.5-18.3-7.5c-6.9,0-13.4,2.7-18.3,7.5l-1,1v6.4l4.2-4.2c8.3-8.3,21.8-8.3,30.1,0l24.7,24.7L0,878.2v6.4l62.3-62.3
		l62.5,62.5L50,959.5C40,969.6,40,986,50,996.1l3.9,3.9h6.4l-7.1-7.1c-8.3-8.3-8.3-21.8,0-30.1l74.7-74.7l24.7,24.7
		c8.3,8.3,8.3,21.8,0,30.1L95.5,1000h6.4l53.9-53.9c4.9-4.9,7.5-11.4,7.5-18.3s-2.7-13.4-7.5-18.3l-24.7-24.7l62.5-62.5l24.7,24.7
		c5,5,11.6,7.5,18.3,7.5s13.2-2.5,18.3-7.5l74.7-74.7l62.5,62.5l-74.7,74.7c-4.9,4.9-7.5,11.4-7.5,18.3s2.7,13.4,7.5,18.3l24.7,24.7
		l-29.2,29.2h6.4l26-26l26,26h6.4l-29.2-29.2l74.7-74.7c10.1-10.1,10.1-26.4,0-36.5l-24.7-24.7l62.5-62.5l24.7,24.7
		c5,5,11.6,7.5,18.3,7.5s13.2-2.5,18.3-7.5l74.7-74.7l62.5,62.5l-74.7,74.7c-10.1,10.1-10.1,26.4,0,36.5l24.7,24.7l-62.5,62.5
		l-24.7-24.7c-10.1-10.1-26.4-10.1-36.5,0l-41.4,41.4h6.4l38.2-38.2c4.2-4.2,9.6-6.2,15.1-6.2c5.5,0,10.9,2.1,15.1,6.2l24.7,24.7
		l-13.5,13.5h6.4l10.3-10.3l10.3,10.3h6.4l-13.5-13.5l62.5-62.5l62.5,62.5l-13.5,13.5h6.4l10.3-10.3l10.3,10.3h6.4l-13.5-13.5
		l74.7-74.7c8.3-8.3,21.8-8.3,30.1,0l24.7,24.7l-63.5,63.5h6.4l60.3-60.3l60.3,60.3h10.7l60.3-60.3l24.7,24.7
		c4.9,4.9,11.4,7.5,18.3,7.5c6.9,0,13.4-2.7,18.3-7.5l74.7-74.7l62.5,62.5l-47.8,47.8h6.4l44.6-44.6l24.7,24.7
		c5.4,5.4,7.3,13,5.7,19.9h4.6c1.5-8.1-0.8-16.8-7.1-23.1l-24.7-24.7l62.5-62.5l24.7,24.7c5,5,11.6,7.5,18.3,7.5
		c6.6,0,13.2-2.5,18.3-7.5l74.7-74.7l51.2,51.2v-6.4l-48.1-48.1l48.1-48.1v-6.4l-51.2,51.2l-24.7-24.7c-10.1-10.1-26.4-10.1-36.5,0
		l-74.7,74.7l-62.5-62.5l74.7-74.7c4.9-4.9,7.5-11.4,7.5-18.3s-2.7-13.4-7.5-18.3l-24.7-24.7l62.5-62.5l24.7,24.7
		c5,5,11.6,7.5,18.3,7.5s13.2-2.5,18.3-7.5l74.7-74.7l1.2,1.2v-8.9l-1.2,1.2l-24.7-24.7c-10.1-10.1-26.4-10.1-36.5,0l-74.7,74.7
		l-62.5-62.5l74.7-74.7c4.9-4.9,7.6-11.4,7.6-18.3c0-6.9-2.7-13.4-7.6-18.3l-24.7-24.7l62.5-62.5l24.7,24.7c5,5,11.6,7.5,18.3,7.5
		c6.6,0,13.2-2.5,18.3-7.5l26-26v-6.4l-29.1,29.1c-8.3,8.3-21.8,8.3-30.1,0l-24.7-24.7l74.7-74.7c2.7-2.7,5.9-4.5,9.3-5.4v-4.6
		c-4.6,1-8.9,3.3-12.5,6.9l-74.7,74.7l-62.5-62.5l74.7-74.7c10.1-10.1,10.1-26.4,0-36.5l-24.7-24.7l62.5-62.5l24.7,24.7
		c3.6,3.6,7.9,5.9,12.5,6.9v-4.6c-3.4-1-6.6-2.8-9.3-5.4L1366,84.6l34-34v-6.4l-37.2,37.2l-62.5-62.5L1319.2,0h-6.4l-15.7,15.7
		L1281.4,0h-6.4l18.9,18.9l-62.5,62.5l-24.7-24.7c-4.9-4.9-11.4-7.6-18.3-7.6c-6.9,0-13.4,2.7-18.3,7.6l-74.7,74.7L1033,68.9
		L1101.9,0h-6.4l-65.7,65.7L1005.1,41c-4-4-6.2-9.4-6.2-15.1c0-5.7,2.2-11.1,6.2-15.1L1016,0h-6.4l-7.7,7.7
		c-4.9,4.9-7.6,11.4-7.6,18.3c0,6.9,2.7,13.4,7.6,18.3l24.7,24.7l-62.5,62.5l-24.7-24.7c-10.1-10.1-26.4-10.1-36.5,0l-74.7,74.7
		l-62.5-62.5l74.7-74.7c10.1-10.1,10.1-26.4,0-36.5L832.7,0h-6.4l10.9,10.9c8.3,8.3,8.3,21.8,0,30.1l-74.7,74.7L737.8,91
		c-8.3-8.3-8.3-21.8,0-30.1L798.7,0h-6.4l-57.7,57.7c-10.1,10.1-10.1,26.4,0,36.5l24.7,24.7l-62.5,62.5l-24.7-24.7
		c-4.9-4.9-11.4-7.6-18.3-7.6c-6.9,0-13.4,2.7-18.3,7.6l-74.7,74.7l-62.5-62.5l74.7-74.7c10.1-10.1,10.1-26.4,0-36.5L548.4,33l33-33
		H575l-29.8,29.8L515.4,0h-6.4l33,33l-74.7,74.7c-4.9,4.9-7.6,11.4-7.6,18.3c0,6.9,2.7,13.4,7.6,18.3l24.7,24.7l-62.5,62.5
		l-24.7-24.7c-10.1-10.1-26.4-10.1-36.5,0l-74.7,74.7l-62.5-62.5l74.7-74.7c10.1-10.1,10.1-26.4,0-36.5l-24.7-24.7l62.5-62.5
		l24.7,24.7c5,5,11.6,7.5,18.3,7.5c6.6,0,13.2-2.5,18.3-7.5L450,0h-6.4l-42,42c-8.3,8.3-21.8,8.3-30.1,0l-24.7-24.7L364,0h-6.4
		l-14.1,14.1L329.5,0h-6.4l17.3,17.3l-62.5,62.5l-62.5-62.5L232.7,0h-6.4l-14.1,14.1L198.1,0h-6.4L209,17.3L134.3,92
		c-8.3,8.3-21.8,8.3-30.1,0L79.5,67.2L146.7,0h-6.4L76.3,64.1L12.2,0h0L9,3.2l64.1,64.1l-62.5,62.5L0,119.1v6.4l7.4,7.4L0,140.4v6.4
		L10.6,136.1z M84.3,359.3c-8.3,8.3-21.8,8.3-30.1,0l-24.7-24.7l74.7-74.7c4-4,9.4-6.2,15.1-6.2c5.7,0,11.1,2.2,15.1,6.2l24.7,24.7
		L84.3,359.3z M1290.7,811.8c8.3-8.3,21.8-8.3,30.1,0l24.7,24.7l-74.7,74.7c-8.3,8.3-21.8,8.3-30.1,0l-24.7-24.7L1290.7,811.8z
		 M1340.7,544.5c4.2-4.2,9.6-6.2,15.1-6.2c5.5,0,10.9,2.1,15.1,6.2l24.7,24.7l-74.7,74.7c-8.3,8.3-21.8,8.3-30.1,0l-24.7-24.7
		L1340.7,544.5z M153.2,458.3c-8.3-8.3-8.3-21.8,0-30.1l74.7-74.7l24.7,24.7c8.3,8.3,8.3,21.8,0,30.1L177.9,483L153.2,458.3z
		 M115.4,551.9l62.5-62.5l62.5,62.5l-62.5,62.5L115.4,551.9z M103.2,725.6c-8.3-8.3-8.3-21.8,0-30.1l74.7-74.7l24.7,24.7
		c4,4,6.2,9.4,6.2,15.1s-2.2,11.1-6.2,15.1l-74.7,74.7L103.2,725.6z M127.9,881.7l-62.5-62.5l62.5-62.5l62.5,62.5L127.9,881.7z
		 M251.7,843.9c-8.3,8.3-21.8,8.3-30.1,0l-24.7-24.7l74.7-74.7c4.2-4.2,9.6-6.2,15.1-6.2c5.5,0,10.9,2.1,15.1,6.2l24.7,24.7
		L251.7,843.9z M304.8,741.3c-10.1-10.1-26.4-10.1-36.5,0L193.6,816l-62.5-62.5l74.7-74.7c4.9-4.9,7.6-11.4,7.6-18.3
		s-2.7-13.4-7.6-18.3l-24.7-24.7l62.5-62.5l24.7,24.7c5,5,11.6,7.5,18.3,7.5c6.6,0,13.2-2.5,18.3-7.5l74.7-74.7l62.5,62.5
		l-74.7,74.7c-10.1,10.1-10.1,26.4,0,36.5l24.7,24.7L329.6,766L304.8,741.3z M246.8,551.9l74.7-74.7c8.3-8.3,21.8-8.3,30.1,0
		l24.7,24.7l-74.7,74.7c-8.3,8.3-21.8,8.3-30.1,0L246.8,551.9z M507.7,501.9l-62.5,62.5l-62.5-62.5l62.5-62.5L507.7,501.9z
		 M420.5,408.3c-4-4-6.2-9.4-6.2-15.1s2.2-11.1,6.2-15.1l74.7-74.7l24.7,24.7c8.3,8.3,8.3,21.8,0,30.1L445.2,433L420.5,408.3z
		 M469.9,595.5c4,4,6.2,9.4,6.2,15.1s-2.2,11.1-6.2,15.1l-74.7,74.7l-24.7-24.7c-8.3-8.3-8.3-21.8,0-30.1l74.7-74.7L469.9,595.5z
		 M420,862.8c8.3,8.3,8.3,21.8,0,30.1l-74.7,74.7l-24.7-24.7c-4-4-6.2-9.4-6.2-15.1s2.2-11.1,6.2-15.1l74.7-74.7L420,862.8z
		 M395.2,831.7l-62.5-62.5l62.5-62.5l62.5,62.5L395.2,831.7z M519,793.9c-8.3,8.3-21.8,8.3-30.1,0l-24.7-24.7l74.7-74.7
		c4-4,9.4-6.2,15.1-6.2c5.7,0,11.1,2.2,15.1,6.2l24.7,24.7L519,793.9z M596.9,716l-24.7-24.7c-4.9-4.9-11.4-7.6-18.3-7.6
		c-6.9,0-13.4,2.7-18.3,7.6L460.9,766l-62.5-62.5l74.7-74.7c4.9-4.9,7.6-11.4,7.6-18.3c0-6.9-2.7-13.4-7.6-18.3l-24.7-24.7
		l62.5-62.5l24.7,24.7c4.9,4.9,11.4,7.5,18.3,7.5c6.9,0,13.4-2.7,18.3-7.5l74.7-74.7l62.5,62.5l-74.7,74.7
		c-10.1,10.1-10.1,26.4,0,36.5l24.7,24.7L596.9,716z M514.1,501.9l74.7-74.7c4-4,9.4-6.2,15.1-6.2c5.7,0,11.1,2.2,15.1,6.2
		l24.7,24.7L569,526.6c-8.3,8.3-21.8,8.3-30.1,0L514.1,501.9z M775,451.9l-62.5,62.5L650,451.9l62.5-62.5L775,451.9z M687.8,358.3
		c-8.3-8.3-8.3-21.8,0-30.1l74.7-74.7l24.7,24.7c8.3,8.3,8.3,21.8,0,30.1L712.5,383L687.8,358.3z M802.9,479.8
		c5,5,11.6,7.5,18.3,7.5c6.6,0,13.2-2.5,18.3-7.5l74.7-74.7l62.5,62.5l-74.7,74.7c-10.1,10.1-10.1,26.4,0,36.5l24.7,24.7L864.2,666
		l-24.7-24.7c-10.1-10.1-26.4-10.1-36.5,0L728.2,716l-62.5-62.5l74.7-74.7c4.9-4.9,7.6-11.4,7.6-18.3s-2.7-13.4-7.6-18.3l-24.7-24.7
		l62.5-62.5L802.9,479.8z M781.4,451.9l74.7-74.7c8.3-8.3,21.8-8.3,30.1,0l24.7,24.7l-74.7,74.7c-8.3,8.3-21.8,8.3-30.1,0
		L781.4,451.9z M1042.3,401.9l-62.5,62.5l-62.5-62.5l62.5-62.5L1042.3,401.9z M955.1,308.3c-8.3-8.3-8.3-21.8,0-30.1l74.7-74.7
		l24.7,24.7c8.3,8.3,8.3,21.8,0,30.1L979.8,333L955.1,308.3z M1070.2,429.8c4.9,4.9,11.4,7.5,18.3,7.5c6.9,0,13.4-2.7,18.3-7.5
		l74.7-74.7l62.5,62.5l-74.7,74.7c-4.9,4.9-7.6,11.4-7.6,18.3s2.7,13.4,7.6,18.3l24.7,24.7l-62.5,62.5l-24.7-24.7
		c-4.9-4.9-11.4-7.6-18.3-7.6c-6.9,0-13.4,2.7-18.3,7.6L995.5,666L933,603.5l74.7-74.7c4.9-4.9,7.6-11.4,7.6-18.3
		s-2.7-13.4-7.6-18.3L983,467.6l62.5-62.5L1070.2,429.8z M1048.7,401.9l74.7-74.7c4-4,9.4-6.2,15.1-6.2c5.7,0,11.1,2.2,15.1,6.2
		l24.7,24.7l-74.7,74.7c-4,4-9.4,6.2-15.1,6.2c-5.7,0-11.1-2.2-15.1-6.2L1048.7,401.9z M1128.3,619.2l-74.7,74.7
		c-8.3,8.3-21.8,8.3-30.1,0l-24.7-24.7l74.7-74.7c4-4,9.4-6.2,15.1-6.2c5.7,0,11.1,2.2,15.1,6.2L1128.3,619.2z M867.3,669.2
		l62.5-62.5l62.5,62.5l-62.5,62.5L867.3,669.2z M954.6,762.8c8.3,8.3,8.3,21.8,0,30.1l-74.7,74.7l-24.7-24.7c-4-4-6.2-9.4-6.2-15.1
		s2.2-11.1,6.2-15.1l74.7-74.7L954.6,762.8z M905.1,575.6c-8.3-8.3-8.3-21.8,0-30.1l74.7-74.7l24.7,24.7c4,4,6.2,9.4,6.2,15.1
		s-2.2,11.1-6.2,15.1l-74.7,74.7L905.1,575.6z M861,669.2l-74.7,74.7c-8.3,8.3-21.8,8.3-30.1,0v0l-24.7-24.7l74.7-74.7
		c4.2-4.2,9.6-6.2,15.1-6.2c5.5,0,10.9,2.1,15.1,6.2L861,669.2z M662.5,650.3l-24.7-24.7c-8.3-8.3-8.3-21.8,0-30.1l74.7-74.7
		l24.7,24.7c4,4,6.2,9.4,6.2,15.1s-2.2,11.1-6.2,15.1L662.5,650.3z M600,719.2l62.5-62.5l62.5,62.5l-62.5,62.5L600,719.2z
		 M587.8,892.9c-8.3-8.3-8.3-21.8,0-30.1l74.7-74.7l24.7,24.7c8.3,8.3,8.3,21.8,0,30.1l-74.7,74.7L587.8,892.9z M814.2,933.3
		l-24.7-24.7c-10.1-10.1-26.4-10.1-36.5,0l-74.7,74.7l-62.5-62.5l74.7-74.7c4.9-4.9,7.5-11.4,7.5-18.3s-2.7-13.4-7.5-18.3
		l-24.7-24.7l62.5-62.5l24.7,24.7v0c5,5,11.6,7.5,18.3,7.5s13.2-2.5,18.3-7.5l74.7-74.7l62.5,62.5l-74.7,74.7
		c-4.9,4.9-7.5,11.4-7.5,18.3s2.7,13.4,7.5,18.3l24.7,24.7L814.2,933.3z M879.8,999l-62.5-62.5l62.5-62.5l62.5,62.5L879.8,999z
		 M1003.6,961.2c-8.3,8.3-21.8,8.3-30.1,0l-24.7-24.7l74.7-74.7c8.3-8.3,21.8-8.3,30.1,0l24.7,24.7L1003.6,961.2z M1056.7,858.6
		c-10.1-10.1-26.4-10.1-36.5,0l-74.7,74.7L883,870.8l74.7-74.7c10.1-10.1,10.1-26.4,0-36.5L933,734.9l62.5-62.5l24.7,24.7
		c5,5,11.6,7.5,18.3,7.5s13.2-2.5,18.3-7.5l74.7-74.7l62.5,62.5l-74.7,74.7c-10.1,10.1-10.1,26.4,0,36.5l24.7,24.7l-62.5,62.5
		L1056.7,858.6z M1209.6,886.5l-62.5,62.5l-62.5-62.5l62.5-62.5L1209.6,886.5z M1221.9,712.8c8.3,8.3,8.3,21.8,0,30.1l-74.7,74.7
		l-24.7-24.7c-8.3-8.3-8.3-21.8,0-30.1l74.7-74.7L1221.9,712.8z M1259.6,619.2l-62.5,62.5l-62.5-62.5l62.5-62.5L1259.6,619.2z
		 M1271.8,445.5c4,4,6.2,9.4,6.2,15.1c0,5.7-2.2,11.1-6.2,15.1l-74.7,74.7l-24.7-24.7c-4-4-6.2-9.4-6.2-15.1s2.2-11.1,6.2-15.1
		l74.7-74.7L1271.8,445.5z M1309.6,351.9l-62.5,62.5l-62.5-62.5l62.5-62.5L1309.6,351.9z M1321.8,178.2c8.3,8.3,8.3,21.8,0,30.1
		l-74.7,74.7l-24.7-24.7c-8.3-8.3-8.3-21.8,0-30.1l74.7-74.7L1321.8,178.2z M1297.1,22.1l62.5,62.5l-62.5,62.5l-62.5-62.5
		L1297.1,22.1z M1173.4,59.9c4-4,9.4-6.2,15.1-6.2c5.7,0,11.1,2.2,15.1,6.2l24.7,24.7l-74.7,74.7c-8.3,8.3-21.8,8.3-30.1,0
		l-24.7-24.7L1173.4,59.9z M1120.2,162.5c5,5,11.6,7.5,18.3,7.5c6.6,0,13.2-2.5,18.3-7.5l74.7-74.7l62.5,62.5l-74.7,74.7
		c-10.1,10.1-10.1,26.4,0,36.5l24.7,24.7l-62.5,62.5l-24.7-24.7c-4.9-4.9-11.4-7.6-18.3-7.6c-6.9,0-13.4,2.7-18.3,7.6l-74.7,74.7
		L983,336.2l74.7-74.7c10.1-10.1,10.1-26.4,0-36.5l-24.7-24.7l62.5-62.5L1120.2,162.5z M1029.8,72.1l62.5,62.5l-62.5,62.5
		l-62.5-62.5L1029.8,72.1z M906.1,109.9c8.3-8.3,21.8-8.3,30.1,0l24.7,24.7l-74.7,74.7c-8.3,8.3-21.8,8.3-30.1,0l-24.7-24.7
		L906.1,109.9z M852.9,212.5c5,5,11.6,7.5,18.3,7.5c6.6,0,13.2-2.5,18.3-7.5l74.7-74.7l62.5,62.5L951.9,275
		c-10.1,10.1-10.1,26.4,0,36.5l24.7,24.7l-62.5,62.5L889.4,374c-10.1-10.1-26.4-10.1-36.5,0l-74.7,74.7l-62.5-62.5l74.7-74.7
		c10.1-10.1,10.1-26.4,0-36.5l-24.7-24.7l62.5-62.5L852.9,212.5z M762.5,122.1l62.5,62.5l-62.5,62.5L700,184.6L762.5,122.1z
		 M638.8,159.9c4-4,9.4-6.2,15.1-6.2c5.7,0,11.1,2.2,15.1,6.2l24.7,24.7l-74.7,74.7c-8.3,8.3-21.8,8.3-30.1,0l-24.7-24.7
		L638.8,159.9z M585.6,262.5c5,5,11.6,7.5,18.3,7.5c6.6,0,13.2-2.5,18.3-7.5l74.7-74.7l62.5,62.5L684.6,325
		c-10.1,10.1-10.1,26.4,0,36.5l24.7,24.7l-62.5,62.5L622.1,424c-4.9-4.9-11.4-7.6-18.3-7.6c-6.9,0-13.4,2.7-18.3,7.6l-74.7,74.7
		l-62.5-62.5l74.7-74.7c10.1-10.1,10.1-26.4,0-36.5l-24.7-24.7l62.5-62.5L585.6,262.5z M470.5,141c-4-4-6.2-9.4-6.2-15.1
		c0-5.7,2.2-11.1,6.2-15.1l74.7-74.7l24.7,24.7c8.3,8.3,8.3,21.8,0,30.1l-74.7,74.7L470.5,141z M495.2,172.1l62.5,62.5l-62.5,62.5
		l-62.5-62.5L495.2,172.1z M371.5,209.9c8.3-8.3,21.8-8.3,30.1,0l24.7,24.7l-74.7,74.7c-8.3,8.3-21.8,8.3-30.1,0l-24.7-24.7
		L371.5,209.9z M318.3,312.5c5,5,11.6,7.5,18.3,7.5c6.6,0,13.2-2.5,18.3-7.5l74.7-74.7l62.5,62.5L417.3,375
		c-4.9,4.9-7.5,11.4-7.5,18.3s2.7,13.4,7.5,18.3l24.7,24.7l-62.5,62.5L354.8,474c-10.1-10.1-26.4-10.1-36.5,0l-74.7,74.7l-62.5-62.5
		l74.7-74.7c4.9-4.9,7.5-11.4,7.5-18.3s-2.7-13.4-7.5-18.3l-24.7-24.7l62.5-62.5L318.3,312.5z M290.4,284.6l-62.5,62.5l-62.5-62.5
		l62.5-62.5L290.4,284.6z M302.6,110.8c8.3,8.3,8.3,21.8,0,30.1l-74.7,74.7L203.2,191c-8.3-8.3-8.3-21.8,0-30.1l74.7-74.7
		L302.6,110.8z M1336.6,976.9l63.4-63.4v6.4l-60.3,60.3c-4,4-6.2,9.4-6.2,15.1c0,1.7,0.2,3.3,0.6,4.8h-4.6c-0.3-1.6-0.5-3.2-0.5-4.8
		C1329,988.3,1331.7,981.8,1336.6,976.9z M1386.5,709.6l13.5-13.5v6.4l-10.3,10.3c-4,4-6.2,9.4-6.2,15.1s2.2,11.1,6.2,15.1
		l10.3,10.3v6.4l-13.5-13.5c-4.9-4.9-7.5-11.4-7.5-18.3S1381.7,714.5,1386.5,709.6z"/>
</g>
<g id="Copy">
</g>
<g id="Mask">
</g>
</svg>
