<?xml version="1.0" encoding="UTF-8"?>
<svg width="150px" height="50px" viewBox="0 0 150 50" version="1.1" xmlns="http://www.w3.org/2000/svg" xmlns:xlink="http://www.w3.org/1999/xlink">
    <!-- Generator: Sketch 52.4 (67378) - http://www.bohemiancoding.com/sketch -->
    <title>Button</title>
    <desc>Created with Sketch.</desc>
    <defs>
        <polygon id="path-1" points="0 0.0998873874 43 0.0998873874 43 24.9932432 0 24.9932432"></polygon>
    </defs>
    <g id="Component-Library" stroke="none" stroke-width="1" fill="none" fill-rule="evenodd">
        <g id="Pay-with-CardX" transform="translate(-77.000000, -35.000000)">
            <g id="Button" transform="translate(77.000000, 35.000000)">
                <polygon id="Rectangle-6" fill="#372772" fill-rule="nonzero" points="0 0 150 0 150 50 0 50"></polygon>
                <text id="page-heading-small-copy" font-family="Roboto-Bold, Roboto" font-size="10" font-weight="bold" line-spacing="20" letter-spacing="1" fill="#FFFFFF">
                    <tspan x="19.4902344" y="24">PAY WITH</tspan>
                </text>
                <g id="CardX-logo" transform="translate(89.000000, 12.000000)">
                    <g transform="translate(0.000000, 0.490196)">
                        <g id="Group-7">
                            <mask id="mask-2" fill="white">
                                <use xlink:href="#path-1"></use>
                            </mask>
                            <g id="Clip-2"></g>
                            <path d="M3.71388611,0.0998873874 C1.79859444,0.0998873874 0.246891667,1.56283784 0.246891667,3.36891892 L0.246891667,15.5097973 L0.3698,15.6253378 L1.49401111,15.6253378 L1.61811389,15.5097973 L1.61811389,3.36891892 C1.61811389,2.27961712 2.55814167,1.39268018 3.71388611,1.39268018 L39.5322889,1.39268018 C40.6883917,1.39268018 41.6287778,2.27961712 41.6287778,3.36891892 L41.6287778,21.6290541 C41.6287778,22.7186937 40.6883917,23.6052928 39.5322889,23.6052928 L34.4140944,23.6052928 L34.2904694,23.7219595 L34.2904694,24.7686937 L34.4140944,24.8845721 L39.5322889,24.8845721 C41.4482972,24.8845721 43,23.4216216 43,21.6162162 L43,3.36891892 C43,1.56283784 41.4482972,0.0998873874 39.5322889,0.0998873874" id="Fill-1" fill="#FFFFFE" mask="url(#mask-2)"></path>
                            <path d="M13.3928278,24.8834459 L12.0396417,24.8834459 L11.916375,24.7675676 L11.7931083,24.5358108 L11.6702,24.5358108 C11.6702,24.5358108 11.1777306,24.9996622 10.3170139,24.9996622 C8.96299167,24.9996622 8.10191667,24.3032658 8.10191667,23.143018 C8.10191667,21.4030405 9.82490278,21.1711712 10.8093639,21.1711712 C11.3009972,21.1711712 11.6702,21.2871622 11.6702,21.2871622 L11.7931083,21.1711712 L11.7931083,21.054955 C11.7931083,20.4748874 11.6702,20.359009 10.9319139,20.359009 C10.5628306,20.359009 10.1941056,20.359009 10.0707194,20.7073198 L9.94781111,20.8231982 L8.47135833,20.8231982 L8.34773333,20.7073198 C8.34773333,20.0112613 8.96299167,18.9672297 10.9319139,18.9672297 C12.9008361,18.9672297 13.5157361,19.895045 13.5157361,21.635473 L13.5157361,24.7675676 L13.3928278,24.8834459 Z M11.6702,22.4474099 C11.6702,22.4474099 11.4242639,22.3318694 10.9319139,22.3318694 C10.1941056,22.3318694 9.82490278,22.5629505 9.82490278,23.0274775 C9.82490278,23.3755631 10.0707194,23.6073198 10.6857389,23.6073198 C11.3009972,23.6073198 11.7931083,23.2592342 11.7931083,22.7957207 L11.7931083,22.5629505 L11.6702,22.4474099 Z" id="Fill-3" fill="#FFFFFE" mask="url(#mask-2)"></path>
                            <path d="M6.02919722,22.4474099 L6.15210556,22.3318694 L7.62891667,22.3318694 L7.75194444,22.4474099 C7.50529167,24.071509 6.15210556,24.9996622 4.18366111,24.9996622 C1.47645278,24.9996622 0,23.2592342 0,20.8231982 C0,18.3871622 1.47645278,16.6470721 4.18366111,16.6470721 C6.15210556,16.6470721 7.50529167,17.5745495 7.75194444,19.0827703 L7.62891667,19.1990991 L6.15210556,19.1990991 L6.02919722,19.0827703 C5.78338056,18.3871622 5.16812222,18.0388514 4.18366111,18.0388514 C2.46091389,18.0388514 1.72262778,19.1990991 1.72262778,20.8231982 C1.72262778,22.4474099 2.46091389,23.6073198 4.18366111,23.6073198 C5.16812222,23.6073198 5.78338056,23.2592342 6.02919722,22.4474099" id="Fill-4" fill="#FFFFFE" mask="url(#mask-2)"></path>
                            <path d="M18.2939917,20.4751126 L17.4327972,20.4751126 C16.4483361,20.4751126 16.0788944,20.9390766 16.0788944,21.9834459 L16.0788944,24.767455 L15.9559861,24.8836712 L14.4798917,24.8836712 L14.3561472,24.767455 L14.3561472,19.1989865 L14.4798917,19.0834459 L15.8330778,19.0834459 L15.9559861,19.1989865 L16.0788944,19.5466216 L16.2018028,19.5466216 C16.2018028,19.5466216 16.4483361,19.0834459 17.5560639,19.0834459 L18.2939917,19.0834459 L18.4165417,19.1989865 L18.4165417,20.3595721 L18.2939917,20.4751126" id="Fill-5" fill="#FFFFFE" mask="url(#mask-2)"></path>
                            <path d="M21.1628083,18.9672297 C22.2700583,18.9672297 22.7625278,19.5470721 22.7625278,19.5470721 L22.8854361,19.5470721 L22.8854361,16.8788288 L23.0083444,16.7629505 L24.485275,16.7629505 L24.6081833,16.8788288 L24.6081833,24.767455 L24.485275,24.8834459 L23.1316111,24.8834459 L23.0083444,24.767455 L22.8854361,24.4191441 L22.7625278,24.4191441 C22.7625278,24.4191441 22.2700583,25 21.1628083,25 C19.6862361,25 18.4559583,23.8390766 18.4559583,21.9831081 C18.4559583,20.1274775 19.6862361,18.9672297 21.1628083,18.9672297 M21.53225,23.6072072 C22.5163528,23.6072072 22.8854361,22.9112613 22.8854361,21.9831081 C22.8854361,21.054955 22.5163528,20.3588964 21.53225,20.3588964 C20.5474306,20.3588964 20.1787056,21.054955 20.1787056,21.9831081 C20.1787056,22.9112613 20.5474306,23.6072072 21.53225,23.6072072" id="Fill-6" fill="#FFFFFE" mask="url(#mask-2)"></path>
                        </g>
                        <polyline id="Fill-8" fill="#FFFFFE" points="32.9126472 25 32.0416978 25 31.7923719 24.8880872 29.4277623 22.0871144 29.3038242 22.0871144 26.9393354 24.8880872 26.6907343 25 25.8190601 25 25.695122 24.8880872 25.695122 23.7678721 28.1835489 20.966138 28.1835489 20.8545515 25.8190601 18.3896432 25.8190601 17.2694281 25.9434815 17.1568627 26.8150349 17.1568627 27.0637568 17.2694281 29.3038242 19.7336838 29.4277623 19.7336838 31.6680714 17.2694281 31.9166725 17.1568627 32.7882259 17.1568627 32.9126472 17.2694281 32.9126472 18.3896432 30.5481584 20.8545515 30.5481584 20.966138 33.0365854 23.7678721 33.0365854 24.8880872 32.9126472 25"></polyline>
                    </g>
                </g>
            </g>
        </g>
    </g>
</svg>